solid HydroBox4Lid
facet normal -7.363990396792962e-18 4.2415265964144125e-17 -1.0
  outer loop
    vertex 191.27474885811057 157.3219887068693 -1.4099832412739487e-15
    vertex -0.19525114188949366 16.041988706869315 -5.992428775414282e-15
    vertex -0.19525114188949366 157.3219887068693 0.0
  endloop
endfacet
facet normal -7.363990396792962e-18 4.2415265964144125e-17 -1.0
  outer loop
    vertex -0.19525114188949366 16.041988706869315 -5.992428775414282e-15
    vertex 191.27474885811057 157.3219887068693 -1.4099832412739487e-15
    vertex 191.27474885811063 16.041988706869315 -7.402412016688231e-15
  endloop
endfacet
facet normal 0.0 -1.0 0.0
  outer loop
    vertex 191.27474885811063 16.04198870686931 49.99999999999999
    vertex -0.19525114188949366 16.041988706869315 -5.992428775414282e-15
    vertex 191.27474885811063 16.041988706869315 -7.402412016688231e-15
  endloop
endfacet
facet normal 0.0 -1.0 0.0
  outer loop
    vertex -0.19525114188949366 16.041988706869315 -5.992428775414282e-15
    vertex 191.27474885811063 16.04198870686931 49.99999999999999
    vertex -0.19525114188949325 16.04198870686931 49.99999999999999
  endloop
endfacet
facet normal -0.0 1.0 -0.0
  outer loop
    vertex -0.19525114188949325 157.3219887068693 50.00000000000001
    vertex 86.78110378331132 157.3219887068692 38.00219355292715
    vertex -0.19525114188949366 157.3219887068693 0.0
  endloop
endfacet
facet normal -0.0 1.0 -0.0
  outer loop
    vertex 86.78110378331132 157.3219887068692 38.00219355292715
    vertex -0.19525114188949325 157.3219887068693 50.00000000000001
    vertex 86.26722430492616 157.3219887068692 38.09450428568364
  endloop
endfacet
facet normal -0.0 1.0 -0.0
  outer loop
    vertex 86.26722430492616 157.3219887068692 38.09450428568364
    vertex -0.19525114188949325 157.3219887068693 50.00000000000001
    vertex 85.79474662085872 157.3219887068692 38.31667140239023
  endloop
endfacet
facet normal -0.0 1.0 -0.0
  outer loop
    vertex 85.79474662085872 157.3219887068692 38.31667140239023
    vertex -0.19525114188949325 157.3219887068693 50.00000000000001
    vertex 85.3958693044719 157.3219887068692 38.653554581191884
  endloop
endfacet
facet normal -0.0 1.0 -0.0
  outer loop
    vertex 85.3958693044719 157.3219887068692 38.653554581191884
    vertex -0.19525114188949325 157.3219887068693 50.00000000000001
    vertex 85.09777518570155 157.3219887068692 39.08219579017905
  endloop
endfacet
facet normal -0.0 1.0 -0.0
  outer loop
    vertex 85.09777518570155 157.3219887068692 39.08219579017905
    vertex -0.19525114188949325 157.3219887068693 50.00000000000001
    vertex 84.92077888611804 157.3219887068692 39.57338383932235
  endloop
endfacet
facet normal -0.0 1.0 -0.0
  outer loop
    vertex 84.92077888611804 157.3219887068692 39.57338383932235
    vertex -0.19525114188949325 157.3219887068693 50.00000000000001
    vertex 84.87694241103776 157.3219887068692 40.093645074799284
  endloop
endfacet
facet normal -0.0 1.0 -0.0
  outer loop
    vertex 84.87694241103776 157.3219887068692 40.093645074799284
    vertex -0.19525114188949325 157.3219887068693 50.00000000000001
    vertex 84.96925314379425 157.3219887068692 40.607524553184454
  endloop
endfacet
facet normal -0.0 1.0 -0.0
  outer loop
    vertex 84.96925314379425 157.3219887068692 40.607524553184454
    vertex -0.19525114188949325 157.3219887068693 50.00000000000001
    vertex 85.19142026050085 157.3219887068692 41.0800022372519
  endloop
endfacet
facet normal -0.0 1.0 -0.0
  outer loop
    vertex 85.19142026050085 157.3219887068692 41.0800022372519
    vertex -0.19525114188949325 157.3219887068693 50.00000000000001
    vertex 85.52830343930249 157.3219887068692 41.47887955363871
  endloop
endfacet
facet normal -0.0 1.0 -0.0
  outer loop
    vertex 85.52830343930249 157.3219887068692 41.47887955363871
    vertex -0.19525114188949325 157.3219887068693 50.00000000000001
    vertex 85.95694464828966 157.3219887068692 41.776973672409056
  endloop
endfacet
facet normal -0.0 1.0 -0.0
  outer loop
    vertex 85.95694464828966 157.3219887068692 41.776973672409056
    vertex -0.19525114188949325 157.3219887068693 50.00000000000001
    vertex 86.44813269743297 157.3219887068692 41.95396997199257
  endloop
endfacet
facet normal -0.0 1.0 -0.0
  outer loop
    vertex 86.44813269743297 157.3219887068692 41.95396997199257
    vertex -0.19525114188949325 157.3219887068693 50.00000000000001
    vertex 86.9683939329099 157.3219887068692 41.99780644707285
  endloop
endfacet
facet normal -0.0 1.0 -0.0
  outer loop
    vertex 86.9683939329099 157.3219887068692 41.99780644707285
    vertex -0.19525114188949325 157.3219887068693 50.00000000000001
    vertex 124.3747488581106 157.3219887068693 50.0
  endloop
endfacet
facet normal -0.0 1.0 -0.0
  outer loop
    vertex 88.82871883010318 157.3219887068692 40.42661616067765
    vertex 124.3747488581106 157.3219887068693 40.0
    vertex 88.87255530518347 157.3219887068692 39.906354925200716
  endloop
endfacet
facet normal -0.0 1.0 -0.0
  outer loop
    vertex 124.3747488581106 157.3219887068693 40.0
    vertex 88.82871883010318 157.3219887068692 40.42661616067765
    vertex 124.3747488581106 157.3219887068693 50.0
  endloop
endfacet
facet normal -0.0 1.0 -0.0
  outer loop
    vertex 124.3747488581106 157.3219887068693 50.0
    vertex 88.82871883010318 157.3219887068692 40.42661616067765
    vertex 88.65172253051968 157.3219887068692 40.91780420982095
  endloop
endfacet
facet normal -0.0 1.0 -0.0
  outer loop
    vertex 124.3747488581106 157.3219887068693 50.0
    vertex 88.65172253051968 157.3219887068692 40.91780420982095
    vertex 88.35362841174933 157.3219887068692 41.346445418808116
  endloop
endfacet
facet normal -0.0 1.0 -0.0
  outer loop
    vertex 124.3747488581106 157.3219887068693 50.0
    vertex 88.35362841174933 157.3219887068692 41.346445418808116
    vertex 87.95475109536252 157.3219887068692 41.68332859760977
  endloop
endfacet
facet normal -0.0 1.0 -0.0
  outer loop
    vertex 124.3747488581106 157.3219887068693 50.0
    vertex 87.95475109536252 157.3219887068692 41.68332859760977
    vertex 87.48227341129507 157.3219887068692 41.90549571431636
  endloop
endfacet
facet normal -0.0 1.0 -0.0
  outer loop
    vertex 124.3747488581106 157.3219887068693 50.0
    vertex 87.48227341129507 157.3219887068692 41.90549571431636
    vertex 86.9683939329099 157.3219887068692 41.99780644707285
  endloop
endfacet
facet normal -0.0 1.0 -0.0
  outer loop
    vertex -0.19525114188949366 157.3219887068693 0.0
    vertex 191.27474885811057 157.3219887068693 49.99999999999999
    vertex 191.27474885811057 157.3219887068693 -1.4099832412739487e-15
  endloop
endfacet
facet normal -0.0 1.0 -0.0
  outer loop
    vertex 191.27474885811057 157.3219887068693 49.99999999999999
    vertex -0.19525114188949366 157.3219887068693 0.0
    vertex 134.37474885811062 157.3219887068693 40.0
  endloop
endfacet
facet normal -0.0 1.0 -0.0
  outer loop
    vertex 134.37474885811062 157.3219887068693 40.0
    vertex -0.19525114188949366 157.3219887068693 0.0
    vertex 86.78110378331132 157.3219887068692 38.00219355292715
  endloop
endfacet
facet normal -0.0 1.0 -0.0
  outer loop
    vertex 134.37474885811062 157.3219887068693 40.0
    vertex 86.78110378331132 157.3219887068692 38.00219355292715
    vertex 87.30136501878826 157.3219887068692 38.04603002800743
  endloop
endfacet
facet normal -0.0 1.0 -0.0
  outer loop
    vertex 134.37474885811062 157.3219887068693 40.0
    vertex 87.30136501878826 157.3219887068692 38.04603002800743
    vertex 87.79255306793156 157.3219887068692 38.223026327590944
  endloop
endfacet
facet normal -0.0 1.0 -0.0
  outer loop
    vertex 134.37474885811062 157.3219887068693 40.0
    vertex 87.79255306793156 157.3219887068692 38.223026327590944
    vertex 88.22119427691874 157.3219887068692 38.52112044636129
  endloop
endfacet
facet normal -0.0 1.0 -0.0
  outer loop
    vertex 134.37474885811062 157.3219887068693 40.0
    vertex 88.22119427691874 157.3219887068692 38.52112044636129
    vertex 88.5580774557204 157.3219887068692 38.9199977627481
  endloop
endfacet
facet normal -0.0 1.0 -0.0
  outer loop
    vertex 134.37474885811062 157.3219887068693 40.0
    vertex 88.5580774557204 157.3219887068692 38.9199977627481
    vertex 88.78024457242698 157.3219887068692 39.392475446815546
  endloop
endfacet
facet normal -0.0 1.0 -0.0
  outer loop
    vertex 134.37474885811062 157.3219887068693 40.0
    vertex 88.78024457242698 157.3219887068692 39.392475446815546
    vertex 88.87255530518347 157.3219887068692 39.906354925200716
  endloop
endfacet
facet normal -0.0 1.0 -0.0
  outer loop
    vertex 134.37474885811062 157.3219887068693 40.0
    vertex 88.87255530518347 157.3219887068692 39.906354925200716
    vertex 124.3747488581106 157.3219887068693 40.0
  endloop
endfacet
facet normal -0.0 1.0 -0.0
  outer loop
    vertex 191.27474885811057 157.3219887068693 49.99999999999999
    vertex 134.37474885811062 157.3219887068693 40.0
    vertex 134.37474885811062 157.3219887068693 50.0
  endloop
endfacet
facet normal 1.0 3.193620025535558e-16 3.985111382776667e-31
  outer loop
    vertex 191.27474885811057 157.3219887068693 -1.4099832412739487e-15
    vertex 191.27474885811054 140.3219887068693 40.0
    vertex 191.27474885811063 16.041988706869315 -7.402412016688231e-15
  endloop
endfacet
facet normal 1.0 3.193620025535558e-16 3.985111382776667e-31
  outer loop
    vertex 191.27474885811054 140.3219887068693 40.0
    vertex 191.27474885811057 157.3219887068693 -1.4099832412739487e-15
    vertex 191.27474885811054 147.3219887068693 39.99999999999999
  endloop
endfacet
facet normal 1.0 3.193620025535558e-16 3.985111382776667e-31
  outer loop
    vertex 191.27474885811054 147.3219887068693 39.99999999999999
    vertex 191.27474885811057 157.3219887068693 -1.4099832412739487e-15
    vertex 191.27474885811057 147.3219887068693 49.99999999999999
  endloop
endfacet
facet normal 1.0 3.193620025535558e-16 3.985111382776667e-31
  outer loop
    vertex 191.27474885811057 147.3219887068693 49.99999999999999
    vertex 191.27474885811057 157.3219887068693 -1.4099832412739487e-15
    vertex 191.27474885811057 157.3219887068693 49.99999999999999
  endloop
endfacet
facet normal 1.0 3.193620025535558e-16 3.985111382776667e-31
  outer loop
    vertex 191.27474885811063 16.041988706869315 -7.402412016688231e-15
    vertex 191.27474885811057 140.3219887068693 50.0
    vertex 191.27474885811063 16.04198870686931 49.99999999999999
  endloop
endfacet
facet normal 1.0 3.193620025535558e-16 3.985111382776667e-31
  outer loop
    vertex 191.27474885811057 140.3219887068693 50.0
    vertex 191.27474885811063 16.041988706869315 -7.402412016688231e-15
    vertex 191.27474885811054 140.3219887068693 40.0
  endloop
endfacet
facet normal -2.964744349925848e-17 -1.859742422455897e-17 1.0
  outer loop
    vertex 189.27474885811063 18.481988706869313 1.9999999999999931
    vertex 1.8047488581105062 155.32198870686932 1.9999999999999998
    vertex 1.8047488581105062 18.481988706869313 1.9999999999999938
  endloop
endfacet
facet normal -2.964744349925848e-17 -1.859742422455897e-17 1.0
  outer loop
    vertex 1.8047488581105062 155.32198870686932 1.9999999999999998
    vertex 189.27474885811063 18.481988706869313 1.9999999999999931
    vertex 144.2747488581106 80.32198870686929 1.9999999999999938
  endloop
endfacet
facet normal -2.964744349925848e-17 -1.859742422455897e-17 1.0
  outer loop
    vertex 144.2747488581106 80.32198870686929 1.9999999999999938
    vertex 189.27474885811063 18.481988706869313 1.9999999999999931
    vertex 174.2747488581106 80.32198870686929 1.999999999999996
  endloop
endfacet
facet normal -2.964744349925848e-17 -1.859742422455897e-17 1.0
  outer loop
    vertex 174.2747488581106 80.32198870686929 1.999999999999996
    vertex 189.27474885811063 18.481988706869313 1.9999999999999931
    vertex 174.2747488581106 110.3219887068693 1.9999999999999962
  endloop
endfacet
facet normal -2.964744349925848e-17 -1.859742422455897e-17 1.0
  outer loop
    vertex 1.8047488581105062 155.32198870686932 1.9999999999999998
    vertex 144.2747488581106 110.3219887068693 1.9999999999999962
    vertex 189.27474885811063 155.32198870686932 1.9999999999999991
  endloop
endfacet
facet normal -2.964744349925848e-17 -1.859742422455897e-17 1.0
  outer loop
    vertex 144.2747488581106 110.3219887068693 1.9999999999999962
    vertex 1.8047488581105062 155.32198870686932 1.9999999999999998
    vertex 144.2747488581106 80.32198870686929 1.9999999999999938
  endloop
endfacet
facet normal -2.964744349925848e-17 -1.859742422455897e-17 1.0
  outer loop
    vertex 189.27474885811063 155.32198870686932 1.9999999999999991
    vertex 144.2747488581106 110.3219887068693 1.9999999999999962
    vertex 174.2747488581106 110.3219887068693 1.9999999999999962
  endloop
endfacet
facet normal -2.964744349925848e-17 -1.859742422455897e-17 1.0
  outer loop
    vertex 189.27474885811063 155.32198870686932 1.9999999999999991
    vertex 174.2747488581106 110.3219887068693 1.9999999999999962
    vertex 189.27474885811063 18.481988706869313 1.9999999999999931
  endloop
endfacet
facet normal 0.0 -1.0 0.0
  outer loop
    vertex 189.37474885811062 155.32198870686932 50.00000000000001
    vertex 1.8047488581105062 155.32198870686932 1.9999999999999998
    vertex 189.27474885811063 155.32198870686932 1.9999999999999991
  endloop
endfacet
facet normal 0.0 -1.0 0.0
  outer loop
    vertex 1.8047488581105062 155.32198870686932 1.9999999999999998
    vertex 189.37474885811062 155.32198870686932 50.00000000000001
    vertex 134.37474885811062 155.3219887068693 40.00000000000001
  endloop
endfacet
facet normal 0.0 -1.0 0.0
  outer loop
    vertex 1.8047488581105062 155.32198870686932 1.9999999999999998
    vertex 134.37474885811062 155.3219887068693 40.00000000000001
    vertex 86.78110378331132 155.32198870686932 38.00219355292715
  endloop
endfacet
facet normal 0.0 -1.0 0.0
  outer loop
    vertex 86.78110378331132 155.32198870686932 38.00219355292715
    vertex 134.37474885811062 155.3219887068693 40.00000000000001
    vertex 87.30136501878826 155.32198870686932 38.04603002800743
  endloop
endfacet
facet normal 0.0 -1.0 0.0
  outer loop
    vertex 87.30136501878826 155.32198870686932 38.04603002800743
    vertex 134.37474885811062 155.3219887068693 40.00000000000001
    vertex 87.79255306793156 155.32198870686932 38.223026327590944
  endloop
endfacet
facet normal 0.0 -1.0 0.0
  outer loop
    vertex 87.79255306793156 155.32198870686932 38.223026327590944
    vertex 134.37474885811062 155.3219887068693 40.00000000000001
    vertex 88.22119427691874 155.32198870686932 38.52112044636129
  endloop
endfacet
facet normal 0.0 -1.0 0.0
  outer loop
    vertex 88.22119427691874 155.32198870686932 38.52112044636129
    vertex 134.37474885811062 155.3219887068693 40.00000000000001
    vertex 88.5580774557204 155.32198870686932 38.9199977627481
  endloop
endfacet
facet normal 0.0 -1.0 0.0
  outer loop
    vertex 88.5580774557204 155.32198870686932 38.9199977627481
    vertex 134.37474885811062 155.3219887068693 40.00000000000001
    vertex 88.78024457242698 155.32198870686932 39.392475446815546
  endloop
endfacet
facet normal 0.0 -1.0 0.0
  outer loop
    vertex 88.78024457242698 155.32198870686932 39.392475446815546
    vertex 134.37474885811062 155.3219887068693 40.00000000000001
    vertex 88.87255530518347 155.32198870686932 39.906354925200716
  endloop
endfacet
facet normal 0.0 -1.0 0.0
  outer loop
    vertex 88.87255530518347 155.32198870686932 39.906354925200716
    vertex 134.37474885811062 155.3219887068693 40.00000000000001
    vertex 124.3747488581106 155.3219887068693 40.0
  endloop
endfacet
facet normal 0.0 -1.0 0.0
  outer loop
    vertex 134.37474885811062 155.3219887068693 40.00000000000001
    vertex 189.37474885811062 155.32198870686932 50.00000000000001
    vertex 134.37474885811062 155.32198870686932 50.00000000000001
  endloop
endfacet
facet normal 0.0 -1.0 0.0
  outer loop
    vertex 124.3747488581106 155.3219887068693 40.0
    vertex 88.82871883010318 155.32198870686932 40.42661616067765
    vertex 88.87255530518347 155.32198870686932 39.906354925200716
  endloop
endfacet
facet normal 0.0 -1.0 0.0
  outer loop
    vertex 88.82871883010318 155.32198870686932 40.42661616067765
    vertex 124.3747488581106 155.3219887068693 40.0
    vertex 124.3747488581106 155.32198870686932 50.0
  endloop
endfacet
facet normal 0.0 -1.0 0.0
  outer loop
    vertex 88.82871883010318 155.32198870686932 40.42661616067765
    vertex 124.3747488581106 155.32198870686932 50.0
    vertex 88.65172253051968 155.32198870686932 40.91780420982095
  endloop
endfacet
facet normal 0.0 -1.0 0.0
  outer loop
    vertex 88.65172253051968 155.32198870686932 40.91780420982095
    vertex 124.3747488581106 155.32198870686932 50.0
    vertex 88.35362841174933 155.32198870686932 41.346445418808116
  endloop
endfacet
facet normal 0.0 -1.0 0.0
  outer loop
    vertex 88.35362841174933 155.32198870686932 41.346445418808116
    vertex 124.3747488581106 155.32198870686932 50.0
    vertex 87.95475109536252 155.32198870686932 41.68332859760977
  endloop
endfacet
facet normal 0.0 -1.0 0.0
  outer loop
    vertex 87.95475109536252 155.32198870686932 41.68332859760977
    vertex 124.3747488581106 155.32198870686932 50.0
    vertex 87.48227341129507 155.32198870686932 41.90549571431636
  endloop
endfacet
facet normal 0.0 -1.0 0.0
  outer loop
    vertex 87.48227341129507 155.32198870686932 41.90549571431636
    vertex 124.3747488581106 155.32198870686932 50.0
    vertex 86.9683939329099 155.32198870686932 41.99780644707285
  endloop
endfacet
facet normal 0.0 -1.0 0.0
  outer loop
    vertex 86.78110378331132 155.32198870686932 38.00219355292715
    vertex 1.8047488581105064 155.32198870686932 50.00000000000001
    vertex 1.8047488581105062 155.32198870686932 1.9999999999999998
  endloop
endfacet
facet normal 0.0 -1.0 0.0
  outer loop
    vertex 1.8047488581105064 155.32198870686932 50.00000000000001
    vertex 86.78110378331132 155.32198870686932 38.00219355292715
    vertex 86.26722430492616 155.32198870686932 38.09450428568364
  endloop
endfacet
facet normal 0.0 -1.0 0.0
  outer loop
    vertex 1.8047488581105064 155.32198870686932 50.00000000000001
    vertex 86.26722430492616 155.32198870686932 38.09450428568364
    vertex 85.79474662085872 155.32198870686932 38.31667140239023
  endloop
endfacet
facet normal 0.0 -1.0 0.0
  outer loop
    vertex 1.8047488581105064 155.32198870686932 50.00000000000001
    vertex 85.79474662085872 155.32198870686932 38.31667140239023
    vertex 85.3958693044719 155.32198870686932 38.653554581191884
  endloop
endfacet
facet normal 0.0 -1.0 0.0
  outer loop
    vertex 1.8047488581105064 155.32198870686932 50.00000000000001
    vertex 85.3958693044719 155.32198870686932 38.653554581191884
    vertex 85.09777518570155 155.32198870686932 39.08219579017905
  endloop
endfacet
facet normal 0.0 -1.0 0.0
  outer loop
    vertex 1.8047488581105064 155.32198870686932 50.00000000000001
    vertex 85.09777518570155 155.32198870686932 39.08219579017905
    vertex 84.92077888611804 155.32198870686932 39.57338383932235
  endloop
endfacet
facet normal 0.0 -1.0 0.0
  outer loop
    vertex 1.8047488581105064 155.32198870686932 50.00000000000001
    vertex 84.92077888611804 155.32198870686932 39.57338383932235
    vertex 84.87694241103776 155.32198870686932 40.093645074799284
  endloop
endfacet
facet normal 0.0 -1.0 0.0
  outer loop
    vertex 1.8047488581105064 155.32198870686932 50.00000000000001
    vertex 84.87694241103776 155.32198870686932 40.093645074799284
    vertex 84.96925314379425 155.32198870686932 40.607524553184454
  endloop
endfacet
facet normal 0.0 -1.0 0.0
  outer loop
    vertex 1.8047488581105064 155.32198870686932 50.00000000000001
    vertex 84.96925314379425 155.32198870686932 40.607524553184454
    vertex 85.19142026050085 155.32198870686932 41.0800022372519
  endloop
endfacet
facet normal 0.0 -1.0 0.0
  outer loop
    vertex 1.8047488581105064 155.32198870686932 50.00000000000001
    vertex 85.19142026050085 155.32198870686932 41.0800022372519
    vertex 85.52830343930249 155.32198870686932 41.47887955363871
  endloop
endfacet
facet normal 0.0 -1.0 0.0
  outer loop
    vertex 1.8047488581105064 155.32198870686932 50.00000000000001
    vertex 85.52830343930249 155.32198870686932 41.47887955363871
    vertex 85.95694464828966 155.32198870686932 41.776973672409056
  endloop
endfacet
facet normal 0.0 -1.0 0.0
  outer loop
    vertex 1.8047488581105064 155.32198870686932 50.00000000000001
    vertex 85.95694464828966 155.32198870686932 41.776973672409056
    vertex 86.44813269743297 155.32198870686932 41.95396997199257
  endloop
endfacet
facet normal 0.0 -1.0 0.0
  outer loop
    vertex 1.8047488581105064 155.32198870686932 50.00000000000001
    vertex 86.44813269743297 155.32198870686932 41.95396997199257
    vertex 86.9683939329099 155.32198870686932 41.99780644707285
  endloop
endfacet
facet normal 0.0 -1.0 0.0
  outer loop
    vertex 1.8047488581105064 155.32198870686932 50.00000000000001
    vertex 86.9683939329099 155.32198870686932 41.99780644707285
    vertex 124.3747488581106 155.32198870686932 50.0
  endloop
endfacet
facet normal -1.6362301018507773e-21 0.9999978298681754 0.0020833288122254203
  outer loop
    vertex 1.8047488581105062 18.481988706869313 1.9999999999999938
    vertex 189.37474885811062 18.38198870686931 49.99999999999999
    vertex 189.27474885811063 18.481988706869313 1.9999999999999931
  endloop
endfacet
facet normal -1.6362301018507773e-21 0.9999978298681754 0.0020833288122254203
  outer loop
    vertex 189.37474885811062 18.38198870686931 49.99999999999999
    vertex 1.8047488581105062 18.481988706869313 1.9999999999999938
    vertex 1.8047488581105064 18.38198870686931 49.99999999999999
  endloop
endfacet
facet normal 1.0 -6.5571128890290045e-18 1.1681969390021105e-18
  outer loop
    vertex 1.8047488581105062 155.32198870686932 1.9999999999999998
    vertex 1.8047488581105051 31.781988706869313 32.48929
    vertex 1.8047488581105062 18.481988706869313 1.9999999999999938
  endloop
endfacet
facet normal 1.0 -6.5571128890290045e-18 1.1681969390021105e-18
  outer loop
    vertex 1.8047488581105051 31.781988706869313 32.48929
    vertex 1.8047488581105062 155.32198870686932 1.9999999999999998
    vertex 1.8047488581105051 43.78198870686931 32.48929
  endloop
endfacet
facet normal 1.0 -6.5571128890290045e-18 1.1681969390021105e-18
  outer loop
    vertex 1.8047488581105051 43.78198870686931 32.48929
    vertex 1.8047488581105062 155.32198870686932 1.9999999999999998
    vertex 1.8047488581105051 43.78198870686931 49.99999999999999
  endloop
endfacet
facet normal 1.0 -6.5571128890290045e-18 1.1681969390021105e-18
  outer loop
    vertex 1.8047488581105051 43.78198870686931 49.99999999999999
    vertex 1.8047488581105062 155.32198870686932 1.9999999999999998
    vertex 1.8047488581105064 155.32198870686932 50.00000000000001
  endloop
endfacet
facet normal 1.0 -6.5571128890290045e-18 1.1681969390021105e-18
  outer loop
    vertex 1.8047488581105062 18.481988706869313 1.9999999999999938
    vertex 1.8047488581105051 31.781988706869313 49.99999999999999
    vertex 1.8047488581105064 18.38198870686931 49.99999999999999
  endloop
endfacet
facet normal 1.0 -6.5571128890290045e-18 1.1681969390021105e-18
  outer loop
    vertex 1.8047488581105051 31.781988706869313 49.99999999999999
    vertex 1.8047488581105062 18.481988706869313 1.9999999999999938
    vertex 1.8047488581105051 31.781988706869313 32.48929
  endloop
endfacet
facet normal -5.2874371547773056e-17 -3.52495810318487e-17 1.0
  outer loop
    vertex 169.2747488581106 85.3219887068693 7.9999999999999964
    vertex 149.2747488581106 105.3219887068693 7.9999999999999964
    vertex 149.2747488581106 85.3219887068693 7.999999999999994
  endloop
endfacet
facet normal -5.2874371547773056e-17 -3.52495810318487e-17 1.0
  outer loop
    vertex 149.2747488581106 105.3219887068693 7.9999999999999964
    vertex 169.2747488581106 85.3219887068693 7.9999999999999964
    vertex 169.2747488581106 105.3219887068693 7.9999999999999964
  endloop
endfacet
facet normal -0.7682212795973766 -6.43727802088637e-17 0.6401843996644792
  outer loop
    vertex 149.2747488581106 85.3219887068693 7.999999999999994
    vertex 144.2747488581106 110.3219887068693 1.9999999999999962
    vertex 144.2747488581106 80.32198870686929 1.9999999999999938
  endloop
endfacet
facet normal -0.7682212795973766 -6.43727802088637e-17 0.6401843996644792
  outer loop
    vertex 144.2747488581106 110.3219887068693 1.9999999999999962
    vertex 149.2747488581106 85.3219887068693 7.999999999999994
    vertex 149.2747488581106 105.3219887068693 7.9999999999999964
  endloop
endfacet
facet normal -6.260914239492329e-17 -0.7682212795973757 0.64018439966448
  outer loop
    vertex 174.2747488581106 80.32198870686929 1.999999999999996
    vertex 149.2747488581106 85.3219887068693 7.999999999999994
    vertex 144.2747488581106 80.32198870686929 1.9999999999999938
  endloop
endfacet
facet normal -6.260914239492329e-17 -0.7682212795973757 0.64018439966448
  outer loop
    vertex 149.2747488581106 85.3219887068693 7.999999999999994
    vertex 174.2747488581106 80.32198870686929 1.999999999999996
    vertex 169.2747488581106 85.3219887068693 7.9999999999999964
  endloop
endfacet
facet normal 0.7682212795973764 -3.527275627882902e-18 0.6401843996644792
  outer loop
    vertex 174.2747488581106 110.3219887068693 1.9999999999999962
    vertex 169.2747488581106 85.3219887068693 7.9999999999999964
    vertex 174.2747488581106 80.32198870686929 1.999999999999996
  endloop
endfacet
facet normal 0.7682212795973764 -3.527275627882902e-18 0.6401843996644792
  outer loop
    vertex 169.2747488581106 85.3219887068693 7.9999999999999964
    vertex 174.2747488581106 110.3219887068693 1.9999999999999962
    vertex 169.2747488581106 105.3219887068693 7.9999999999999964
  endloop
endfacet
facet normal -0.0 0.7682212795973764 0.6401843996644792
  outer loop
    vertex 149.2747488581106 105.3219887068693 7.9999999999999964
    vertex 174.2747488581106 110.3219887068693 1.9999999999999962
    vertex 144.2747488581106 110.3219887068693 1.9999999999999962
  endloop
endfacet
facet normal -0.0 0.7682212795973764 0.6401843996644792
  outer loop
    vertex 174.2747488581106 110.3219887068693 1.9999999999999962
    vertex 149.2747488581106 105.3219887068693 7.9999999999999964
    vertex 169.2747488581106 105.3219887068693 7.9999999999999964
  endloop
endfacet
facet normal -2.819966482547896e-16 1.4099832412739513e-15 1.0
  outer loop
    vertex 134.37474885811062 155.3219887068693 40.00000000000001
    vertex 124.3747488581106 157.3219887068693 40.0
    vertex 124.3747488581106 155.3219887068693 40.0
  endloop
endfacet
facet normal -2.819966482547896e-16 1.4099832412739513e-15 1.0
  outer loop
    vertex 124.3747488581106 157.3219887068693 40.0
    vertex 134.37474885811062 155.3219887068693 40.00000000000001
    vertex 134.37474885811062 157.3219887068693 40.0
  endloop
endfacet
facet normal 1.0 0.0 2.819966482547896e-16
  outer loop
    vertex 124.3747488581106 157.3219887068693 40.0
    vertex 124.3747488581106 155.32198870686932 50.0
    vertex 124.3747488581106 155.3219887068693 40.0
  endloop
endfacet
facet normal 1.0 0.0 2.819966482547896e-16
  outer loop
    vertex 124.3747488581106 155.32198870686932 50.0
    vertex 124.3747488581106 157.3219887068693 40.0
    vertex 124.3747488581106 157.3219887068693 50.0
  endloop
endfacet
facet normal -1.0 -7.952210962693572e-31 -2.819966482547896e-16
  outer loop
    vertex 134.37474885811062 155.32198870686932 50.00000000000001
    vertex 134.37474885811062 157.3219887068693 40.0
    vertex 134.37474885811062 155.3219887068693 40.00000000000001
  endloop
endfacet
facet normal -1.0 -7.952210962693572e-31 -2.819966482547896e-16
  outer loop
    vertex 134.37474885811062 157.3219887068693 40.0
    vertex 134.37474885811062 155.32198870686932 50.00000000000001
    vertex 134.37474885811062 157.3219887068693 50.0
  endloop
endfacet
facet normal -0.9999976756880179 3.631233804234488e-05 0.002155759721335841
  outer loop
    vertex 189.37474885811062 155.32198870686932 50.00000000000001
    vertex 189.3747488581106 147.3219887068693 40.0
    vertex 189.37474885811062 147.3219887068693 50.0
  endloop
endfacet
facet normal -0.9999976756880179 3.631233804234488e-05 0.002155759721335841
  outer loop
    vertex 189.37474885811062 140.3219887068693 50.0
    vertex 189.27474885811063 18.481988706869313 1.9999999999999931
    vertex 189.37474885811062 18.38198870686931 49.99999999999999
  endloop
endfacet
facet normal -0.9999976756880179 3.631233804234488e-05 0.002155759721335841
  outer loop
    vertex 189.27474885811063 18.481988706869313 1.9999999999999931
    vertex 189.37474885811062 140.3219887068693 50.0
    vertex 189.3747488581106 140.3219887068693 40.0
  endloop
endfacet
facet normal -0.9999976756880179 3.631233804234488e-05 0.002155759721335841
  outer loop
    vertex 189.27474885811063 18.481988706869313 1.9999999999999931
    vertex 189.3747488581106 140.3219887068693 40.0
    vertex 189.27474885811063 155.32198870686932 1.9999999999999991
  endloop
endfacet
facet normal -0.9999976756880179 3.631233804234488e-05 0.002155759721335841
  outer loop
    vertex 189.27474885811063 155.32198870686932 1.9999999999999991
    vertex 189.3747488581106 140.3219887068693 40.0
    vertex 189.3747488581106 147.3219887068693 40.0
  endloop
endfacet
facet normal -0.9999976756880179 3.631233804234488e-05 0.002155759721335841
  outer loop
    vertex 189.27474885811063 155.32198870686932 1.9999999999999991
    vertex 189.3747488581106 147.3219887068693 40.0
    vertex 189.37474885811062 155.32198870686932 50.00000000000001
  endloop
endfacet
facet normal 7.251030730146195e-17 -8.603265369059656e-17 1.0
  outer loop
    vertex 191.27474885811057 147.3219887068693 49.99999999999999
    vertex 189.37474885811062 155.32198870686932 50.00000000000001
    vertex 189.37474885811062 147.3219887068693 50.0
  endloop
endfacet
facet normal 7.251030730146195e-17 -8.603265369059656e-17 1.0
  outer loop
    vertex 189.37474885811062 155.32198870686932 50.00000000000001
    vertex 134.37474885811062 157.3219887068693 50.0
    vertex 134.37474885811062 155.32198870686932 50.00000000000001
  endloop
endfacet
facet normal 7.251030730146195e-17 -8.603265369059656e-17 1.0
  outer loop
    vertex 134.37474885811062 157.3219887068693 50.0
    vertex 189.37474885811062 155.32198870686932 50.00000000000001
    vertex 191.27474885811057 157.3219887068693 49.99999999999999
  endloop
endfacet
facet normal 7.251030730146195e-17 -8.603265369059656e-17 1.0
  outer loop
    vertex 191.27474885811057 157.3219887068693 49.99999999999999
    vertex 189.37474885811062 155.32198870686932 50.00000000000001
    vertex 191.27474885811057 147.3219887068693 49.99999999999999
  endloop
endfacet
facet normal -1.9464157924698975e-18 -4.5163603140647705e-17 1.0
  outer loop
    vertex -0.19525114188949325 16.04198870686931 49.99999999999999
    vertex 1.8047488581105064 18.38198870686931 49.99999999999999
    vertex -0.19525114188949325 31.781988706869313 49.99999999999999
  endloop
endfacet
facet normal -1.9464157924698975e-18 -4.5163603140647705e-17 1.0
  outer loop
    vertex 1.8047488581105064 18.38198870686931 49.99999999999999
    vertex -0.19525114188949325 16.04198870686931 49.99999999999999
    vertex 191.27474885811063 16.04198870686931 49.99999999999999
  endloop
endfacet
facet normal -1.9464157924698975e-18 -4.5163603140647705e-17 1.0
  outer loop
    vertex -0.19525114188949325 31.781988706869313 49.99999999999999
    vertex 1.8047488581105064 18.38198870686931 49.99999999999999
    vertex 1.8047488581105051 31.781988706869313 49.99999999999999
  endloop
endfacet
facet normal -1.9464157924698975e-18 -4.5163603140647705e-17 1.0
  outer loop
    vertex 1.8047488581105064 18.38198870686931 49.99999999999999
    vertex 191.27474885811063 16.04198870686931 49.99999999999999
    vertex 189.37474885811062 18.38198870686931 49.99999999999999
  endloop
endfacet
facet normal -1.9464157924698975e-18 -4.5163603140647705e-17 1.0
  outer loop
    vertex 189.37474885811062 18.38198870686931 49.99999999999999
    vertex 191.27474885811063 16.04198870686931 49.99999999999999
    vertex 189.37474885811062 140.3219887068693 50.0
  endloop
endfacet
facet normal -1.9464157924698975e-18 -4.5163603140647705e-17 1.0
  outer loop
    vertex 189.37474885811062 140.3219887068693 50.0
    vertex 191.27474885811063 16.04198870686931 49.99999999999999
    vertex 191.27474885811057 140.3219887068693 50.0
  endloop
endfacet
facet normal 1.484192885551563e-15 4.028523546496991e-16 1.0
  outer loop
    vertex 191.27474885811054 140.3219887068693 40.0
    vertex 189.3747488581106 147.3219887068693 40.0
    vertex 189.3747488581106 140.3219887068693 40.0
  endloop
endfacet
facet normal 1.484192885551563e-15 4.028523546496991e-16 1.0
  outer loop
    vertex 189.3747488581106 147.3219887068693 40.0
    vertex 191.27474885811054 140.3219887068693 40.0
    vertex 191.27474885811054 147.3219887068693 39.99999999999999
  endloop
endfacet
facet normal -0.0 1.0 -0.0
  outer loop
    vertex 189.37474885811062 140.3219887068693 50.0
    vertex 191.27474885811054 140.3219887068693 40.0
    vertex 189.3747488581106 140.3219887068693 40.0
  endloop
endfacet
facet normal -0.0 1.0 -0.0
  outer loop
    vertex 191.27474885811054 140.3219887068693 40.0
    vertex 189.37474885811062 140.3219887068693 50.0
    vertex 191.27474885811057 140.3219887068693 50.0
  endloop
endfacet
facet normal 0.0 -1.0 0.0
  outer loop
    vertex 191.27474885811057 147.3219887068693 49.99999999999999
    vertex 189.3747488581106 147.3219887068693 40.0
    vertex 191.27474885811054 147.3219887068693 39.99999999999999
  endloop
endfacet
facet normal 0.0 -1.0 0.0
  outer loop
    vertex 189.3747488581106 147.3219887068693 40.0
    vertex 191.27474885811057 147.3219887068693 49.99999999999999
    vertex 189.37474885811062 147.3219887068693 50.0
  endloop
endfacet
facet normal -1.0 -2.3551732307078947e-19 8.396647022129193e-18
  outer loop
    vertex -0.19525114188949325 157.3219887068693 50.00000000000001
    vertex -0.19525114188949333 43.78198870686931 32.48929
    vertex -0.19525114188949325 43.78198870686931 49.99999999999999
  endloop
endfacet
facet normal -1.0 -2.3551732307078947e-19 8.396647022129193e-18
  outer loop
    vertex -0.19525114188949325 31.781988706869313 49.99999999999999
    vertex -0.19525114188949366 16.041988706869315 -5.992428775414282e-15
    vertex -0.19525114188949325 16.04198870686931 49.99999999999999
  endloop
endfacet
facet normal -1.0 -2.3551732307078947e-19 8.396647022129193e-18
  outer loop
    vertex -0.19525114188949366 16.041988706869315 -5.992428775414282e-15
    vertex -0.19525114188949325 31.781988706869313 49.99999999999999
    vertex -0.19525114188949333 31.781988706869313 32.48929
  endloop
endfacet
facet normal -1.0 -2.3551732307078947e-19 8.396647022129193e-18
  outer loop
    vertex -0.19525114188949366 16.041988706869315 -5.992428775414282e-15
    vertex -0.19525114188949333 31.781988706869313 32.48929
    vertex -0.19525114188949366 157.3219887068693 0.0
  endloop
endfacet
facet normal -1.0 -2.3551732307078947e-19 8.396647022129193e-18
  outer loop
    vertex -0.19525114188949366 157.3219887068693 0.0
    vertex -0.19525114188949333 31.781988706869313 32.48929
    vertex -0.19525114188949333 43.78198870686931 32.48929
  endloop
endfacet
facet normal -1.0 -2.3551732307078947e-19 8.396647022129193e-18
  outer loop
    vertex -0.19525114188949366 157.3219887068693 0.0
    vertex -0.19525114188949333 43.78198870686931 32.48929
    vertex -0.19525114188949325 157.3219887068693 50.00000000000001
  endloop
endfacet
facet normal 4.892563721537625e-17 -9.680151521914132e-17 1.0
  outer loop
    vertex -0.19525114188949325 157.3219887068693 50.00000000000001
    vertex 1.8047488581105064 155.32198870686932 50.00000000000001
    vertex 124.3747488581106 157.3219887068693 50.0
  endloop
endfacet
facet normal 4.892563721537625e-17 -9.680151521914132e-17 1.0
  outer loop
    vertex 1.8047488581105064 155.32198870686932 50.00000000000001
    vertex -0.19525114188949325 157.3219887068693 50.00000000000001
    vertex -0.19525114188949325 43.78198870686931 49.99999999999999
  endloop
endfacet
facet normal 4.892563721537625e-17 -9.680151521914132e-17 1.0
  outer loop
    vertex 1.8047488581105064 155.32198870686932 50.00000000000001
    vertex -0.19525114188949325 43.78198870686931 49.99999999999999
    vertex 1.8047488581105051 43.78198870686931 49.99999999999999
  endloop
endfacet
facet normal 4.892563721537625e-17 -9.680151521914132e-17 1.0
  outer loop
    vertex 124.3747488581106 157.3219887068693 50.0
    vertex 1.8047488581105064 155.32198870686932 50.00000000000001
    vertex 124.3747488581106 155.32198870686932 50.0
  endloop
endfacet
facet normal 0.0 0.0 1.0
  outer loop
    vertex 1.8047488581105051 31.781988706869313 32.48929
    vertex -0.19525114188949333 43.78198870686931 32.48929
    vertex -0.19525114188949333 31.781988706869313 32.48929
  endloop
endfacet
facet normal 0.0 0.0 1.0
  outer loop
    vertex -0.19525114188949333 43.78198870686931 32.48929
    vertex 1.8047488581105051 31.781988706869313 32.48929
    vertex 1.8047488581105051 43.78198870686931 32.48929
  endloop
endfacet
facet normal -0.0 1.0 -0.0
  outer loop
    vertex -0.19525114188949325 31.781988706869313 49.99999999999999
    vertex 1.8047488581105051 31.781988706869313 32.48929
    vertex -0.19525114188949333 31.781988706869313 32.48929
  endloop
endfacet
facet normal -0.0 1.0 -0.0
  outer loop
    vertex 1.8047488581105051 31.781988706869313 32.48929
    vertex -0.19525114188949325 31.781988706869313 49.99999999999999
    vertex 1.8047488581105051 31.781988706869313 49.99999999999999
  endloop
endfacet
facet normal -0.0 -1.0 -0.0
  outer loop
    vertex 1.8047488581105051 43.78198870686931 49.99999999999999
    vertex -0.19525114188949333 43.78198870686931 32.48929
    vertex 1.8047488581105051 43.78198870686931 32.48929
  endloop
endfacet
facet normal -0.0 -1.0 -0.0
  outer loop
    vertex -0.19525114188949333 43.78198870686931 32.48929
    vertex 1.8047488581105051 43.78198870686931 49.99999999999999
    vertex -0.19525114188949325 43.78198870686931 49.99999999999999
  endloop
endfacet
facet normal 0.5709469373545266 -0.0 -0.8209869637975297
  outer loop
    vertex 85.95694464828966 157.3219887068692 41.776973672409056
    vertex 85.52830343930249 155.32198870686932 41.47887955363871
    vertex 85.52830343930249 157.3219887068692 41.47887955363871
  endloop
endfacet
facet normal 0.5709469373545266 -0.0 -0.8209869637975297
  outer loop
    vertex 85.52830343930249 155.32198870686932 41.47887955363871
    vertex 85.95694464828966 157.3219887068692 41.776973672409056
    vertex 85.95694464828966 155.32198870686932 41.776973672409056
  endloop
endfacet
facet normal 0.7639794542430894 -0.0 -0.6452405702483619
  outer loop
    vertex 85.19142026050085 157.3219887068692 41.0800022372519
    vertex 85.52830343930249 155.32198870686932 41.47887955363871
    vertex 85.19142026050085 155.32198870686932 41.0800022372519
  endloop
endfacet
facet normal 0.7639794542430894 -0.0 -0.6452405702483619
  outer loop
    vertex 85.52830343930249 155.32198870686932 41.47887955363871
    vertex 85.19142026050085 157.3219887068692 41.0800022372519
    vertex 85.52830343930249 157.3219887068692 41.47887955363871
  endloop
endfacet
facet normal 0.9049480338607093 -0.0 -0.42552209814724856
  outer loop
    vertex 84.96925314379425 157.3219887068692 40.607524553184454
    vertex 85.19142026050085 155.32198870686932 41.0800022372519
    vertex 84.96925314379425 155.32198870686932 40.607524553184454
  endloop
endfacet
facet normal 0.9049480338607093 -0.0 -0.42552209814724856
  outer loop
    vertex 85.19142026050085 155.32198870686932 41.0800022372519
    vertex 84.96925314379425 157.3219887068692 40.607524553184454
    vertex 85.19142026050085 157.3219887068692 41.0800022372519
  endloop
endfacet
facet normal 0.9842459004680651 -0.0 -0.1768049982659074
  outer loop
    vertex 84.87694241103776 157.3219887068692 40.093645074799284
    vertex 84.96925314379425 155.32198870686932 40.607524553184454
    vertex 84.87694241103776 155.32198870686932 40.093645074799284
  endloop
endfacet
facet normal 0.9842459004680651 -0.0 -0.1768049982659074
  outer loop
    vertex 84.96925314379425 155.32198870686932 40.607524553184454
    vertex 84.87694241103776 157.3219887068692 40.093645074799284
    vertex 84.96925314379425 157.3219887068692 40.607524553184454
  endloop
endfacet
facet normal 0.9964690355017779 0.0 0.08396107006319334
  outer loop
    vertex 84.92077888611804 157.3219887068692 39.57338383932235
    vertex 84.87694241103776 155.32198870686932 40.093645074799284
    vertex 84.92077888611804 155.32198870686932 39.57338383932235
  endloop
endfacet
facet normal 0.9964690355017779 0.0 0.08396107006319334
  outer loop
    vertex 84.87694241103776 155.32198870686932 40.093645074799284
    vertex 84.92077888611804 157.3219887068692 39.57338383932235
    vertex 84.87694241103776 157.3219887068692 40.093645074799284
  endloop
endfacet
facet normal 0.9407844525089876 0.0 0.33900533021969514
  outer loop
    vertex 85.09777518570155 157.3219887068692 39.08219579017905
    vertex 84.92077888611804 155.32198870686932 39.57338383932235
    vertex 85.09777518570155 155.32198870686932 39.08219579017905
  endloop
endfacet
facet normal 0.9407844525089876 0.0 0.33900533021969514
  outer loop
    vertex 84.92077888611804 155.32198870686932 39.57338383932235
    vertex 85.09777518570155 157.3219887068692 39.08219579017905
    vertex 84.92077888611804 157.3219887068692 39.57338383932235
  endloop
endfacet
facet normal 0.8209869637975263 0.0 0.5709469373545317
  outer loop
    vertex 85.3958693044719 157.3219887068692 38.653554581191884
    vertex 85.09777518570155 155.32198870686932 39.08219579017905
    vertex 85.3958693044719 155.32198870686932 38.653554581191884
  endloop
endfacet
facet normal 0.8209869637975263 0.0 0.5709469373545317
  outer loop
    vertex 85.09777518570155 155.32198870686932 39.08219579017905
    vertex 85.3958693044719 157.3219887068692 38.653554581191884
    vertex 85.09777518570155 157.3219887068692 39.08219579017905
  endloop
endfacet
facet normal 0.6452405702483736 0.0 0.7639794542430796
  outer loop
    vertex 85.79474662085872 155.32198870686932 38.31667140239023
    vertex 85.3958693044719 157.3219887068692 38.653554581191884
    vertex 85.3958693044719 155.32198870686932 38.653554581191884
  endloop
endfacet
facet normal 0.6452405702483736 0.0 0.7639794542430796
  outer loop
    vertex 85.3958693044719 157.3219887068692 38.653554581191884
    vertex 85.79474662085872 155.32198870686932 38.31667140239023
    vertex 85.79474662085872 157.3219887068692 38.31667140239023
  endloop
endfacet
facet normal 0.42552209814724024 0.0 0.9049480338607132
  outer loop
    vertex 86.26722430492616 155.32198870686932 38.09450428568364
    vertex 85.79474662085872 157.3219887068692 38.31667140239023
    vertex 85.79474662085872 155.32198870686932 38.31667140239023
  endloop
endfacet
facet normal 0.42552209814724024 0.0 0.9049480338607132
  outer loop
    vertex 85.79474662085872 157.3219887068692 38.31667140239023
    vertex 86.26722430492616 155.32198870686932 38.09450428568364
    vertex 86.26722430492616 157.3219887068692 38.09450428568364
  endloop
endfacet
facet normal 0.17680499826589885 0.0 0.9842459004680669
  outer loop
    vertex 86.78110378331132 155.32198870686932 38.00219355292715
    vertex 86.26722430492616 157.3219887068692 38.09450428568364
    vertex 86.26722430492616 155.32198870686932 38.09450428568364
  endloop
endfacet
facet normal 0.17680499826589885 0.0 0.9842459004680669
  outer loop
    vertex 86.26722430492616 157.3219887068692 38.09450428568364
    vertex 86.78110378331132 155.32198870686932 38.00219355292715
    vertex 86.78110378331132 157.3219887068692 38.00219355292715
  endloop
endfacet
facet normal -0.08396107006318261 -0.0 0.9964690355017788
  outer loop
    vertex 87.30136501878826 155.32198870686932 38.04603002800743
    vertex 86.78110378331132 157.3219887068692 38.00219355292715
    vertex 86.78110378331132 155.32198870686932 38.00219355292715
  endloop
endfacet
facet normal -0.08396107006318261 -0.0 0.9964690355017788
  outer loop
    vertex 86.78110378331132 157.3219887068692 38.00219355292715
    vertex 87.30136501878826 155.32198870686932 38.04603002800743
    vertex 87.30136501878826 157.3219887068692 38.04603002800743
  endloop
endfacet
facet normal -0.33900533021969514 -0.0 0.9407844525089876
  outer loop
    vertex 87.79255306793156 155.32198870686932 38.223026327590944
    vertex 87.30136501878826 157.3219887068692 38.04603002800743
    vertex 87.30136501878826 155.32198870686932 38.04603002800743
  endloop
endfacet
facet normal -0.33900533021969514 -0.0 0.9407844525089876
  outer loop
    vertex 87.30136501878826 157.3219887068692 38.04603002800743
    vertex 87.79255306793156 155.32198870686932 38.223026327590944
    vertex 87.79255306793156 157.3219887068692 38.223026327590944
  endloop
endfacet
facet normal -0.5709469373545266 -0.0 0.8209869637975297
  outer loop
    vertex 88.22119427691874 155.32198870686932 38.52112044636129
    vertex 87.79255306793156 157.3219887068692 38.223026327590944
    vertex 87.79255306793156 155.32198870686932 38.223026327590944
  endloop
endfacet
facet normal -0.5709469373545266 -0.0 0.8209869637975297
  outer loop
    vertex 87.79255306793156 157.3219887068692 38.223026327590944
    vertex 88.22119427691874 155.32198870686932 38.52112044636129
    vertex 88.22119427691874 157.3219887068692 38.52112044636129
  endloop
endfacet
facet normal -0.7639794542430894 -0.0 0.6452405702483619
  outer loop
    vertex 88.5580774557204 157.3219887068692 38.9199977627481
    vertex 88.22119427691874 155.32198870686932 38.52112044636129
    vertex 88.5580774557204 155.32198870686932 38.9199977627481
  endloop
endfacet
facet normal -0.7639794542430894 -0.0 0.6452405702483619
  outer loop
    vertex 88.22119427691874 155.32198870686932 38.52112044636129
    vertex 88.5580774557204 157.3219887068692 38.9199977627481
    vertex 88.22119427691874 157.3219887068692 38.52112044636129
  endloop
endfacet
facet normal -0.9049480338607093 -0.0 0.42552209814724856
  outer loop
    vertex 88.78024457242698 157.3219887068692 39.392475446815546
    vertex 88.5580774557204 155.32198870686932 38.9199977627481
    vertex 88.78024457242698 155.32198870686932 39.392475446815546
  endloop
endfacet
facet normal -0.9049480338607093 -0.0 0.42552209814724856
  outer loop
    vertex 88.5580774557204 155.32198870686932 38.9199977627481
    vertex 88.78024457242698 157.3219887068692 39.392475446815546
    vertex 88.5580774557204 157.3219887068692 38.9199977627481
  endloop
endfacet
facet normal -0.9842459004680651 -0.0 0.1768049982659074
  outer loop
    vertex 88.87255530518347 157.3219887068692 39.906354925200716
    vertex 88.78024457242698 155.32198870686932 39.392475446815546
    vertex 88.87255530518347 155.32198870686932 39.906354925200716
  endloop
endfacet
facet normal -0.9842459004680651 -0.0 0.1768049982659074
  outer loop
    vertex 88.78024457242698 155.32198870686932 39.392475446815546
    vertex 88.87255530518347 157.3219887068692 39.906354925200716
    vertex 88.78024457242698 157.3219887068692 39.392475446815546
  endloop
endfacet
facet normal -0.9964690355017779 -0.0 -0.08396107006319334
  outer loop
    vertex 88.82871883010318 157.3219887068692 40.42661616067765
    vertex 88.87255530518347 155.32198870686932 39.906354925200716
    vertex 88.82871883010318 155.32198870686932 40.42661616067765
  endloop
endfacet
facet normal -0.9964690355017779 -0.0 -0.08396107006319334
  outer loop
    vertex 88.87255530518347 155.32198870686932 39.906354925200716
    vertex 88.82871883010318 157.3219887068692 40.42661616067765
    vertex 88.87255530518347 157.3219887068692 39.906354925200716
  endloop
endfacet
facet normal -0.9407844525089876 -0.0 -0.33900533021969514
  outer loop
    vertex 88.65172253051968 157.3219887068692 40.91780420982095
    vertex 88.82871883010318 155.32198870686932 40.42661616067765
    vertex 88.65172253051968 155.32198870686932 40.91780420982095
  endloop
endfacet
facet normal -0.9407844525089876 -0.0 -0.33900533021969514
  outer loop
    vertex 88.82871883010318 155.32198870686932 40.42661616067765
    vertex 88.65172253051968 157.3219887068692 40.91780420982095
    vertex 88.82871883010318 157.3219887068692 40.42661616067765
  endloop
endfacet
facet normal -0.8209869637975263 -0.0 -0.5709469373545317
  outer loop
    vertex 88.35362841174933 157.3219887068692 41.346445418808116
    vertex 88.65172253051968 155.32198870686932 40.91780420982095
    vertex 88.35362841174933 155.32198870686932 41.346445418808116
  endloop
endfacet
facet normal -0.8209869637975263 -0.0 -0.5709469373545317
  outer loop
    vertex 88.65172253051968 155.32198870686932 40.91780420982095
    vertex 88.35362841174933 157.3219887068692 41.346445418808116
    vertex 88.65172253051968 157.3219887068692 40.91780420982095
  endloop
endfacet
facet normal -0.6452405702483736 -0.0 -0.7639794542430796
  outer loop
    vertex 88.35362841174933 157.3219887068692 41.346445418808116
    vertex 87.95475109536252 155.32198870686932 41.68332859760977
    vertex 87.95475109536252 157.3219887068692 41.68332859760977
  endloop
endfacet
facet normal -0.6452405702483736 -0.0 -0.7639794542430796
  outer loop
    vertex 87.95475109536252 155.32198870686932 41.68332859760977
    vertex 88.35362841174933 157.3219887068692 41.346445418808116
    vertex 88.35362841174933 155.32198870686932 41.346445418808116
  endloop
endfacet
facet normal -0.42552209814724024 -0.0 -0.9049480338607132
  outer loop
    vertex 87.95475109536252 157.3219887068692 41.68332859760977
    vertex 87.48227341129507 155.32198870686932 41.90549571431636
    vertex 87.48227341129507 157.3219887068692 41.90549571431636
  endloop
endfacet
facet normal -0.42552209814724024 -0.0 -0.9049480338607132
  outer loop
    vertex 87.48227341129507 155.32198870686932 41.90549571431636
    vertex 87.95475109536252 157.3219887068692 41.68332859760977
    vertex 87.95475109536252 155.32198870686932 41.68332859760977
  endloop
endfacet
facet normal -0.17680499826589885 -0.0 -0.9842459004680669
  outer loop
    vertex 87.48227341129507 157.3219887068692 41.90549571431636
    vertex 86.9683939329099 155.32198870686932 41.99780644707285
    vertex 86.9683939329099 157.3219887068692 41.99780644707285
  endloop
endfacet
facet normal -0.17680499826589885 -0.0 -0.9842459004680669
  outer loop
    vertex 86.9683939329099 155.32198870686932 41.99780644707285
    vertex 87.48227341129507 157.3219887068692 41.90549571431636
    vertex 87.48227341129507 155.32198870686932 41.90549571431636
  endloop
endfacet
facet normal 0.08396107006318261 -0.0 -0.9964690355017788
  outer loop
    vertex 86.9683939329099 157.3219887068692 41.99780644707285
    vertex 86.44813269743297 155.32198870686932 41.95396997199257
    vertex 86.44813269743297 157.3219887068692 41.95396997199257
  endloop
endfacet
facet normal 0.08396107006318261 -0.0 -0.9964690355017788
  outer loop
    vertex 86.44813269743297 155.32198870686932 41.95396997199257
    vertex 86.9683939329099 157.3219887068692 41.99780644707285
    vertex 86.9683939329099 155.32198870686932 41.99780644707285
  endloop
endfacet
facet normal 0.33900533021969514 -0.0 -0.9407844525089876
  outer loop
    vertex 86.44813269743297 157.3219887068692 41.95396997199257
    vertex 85.95694464828966 155.32198870686932 41.776973672409056
    vertex 85.95694464828966 157.3219887068692 41.776973672409056
  endloop
endfacet
facet normal 0.33900533021969514 -0.0 -0.9407844525089876
  outer loop
    vertex 85.95694464828966 155.32198870686932 41.776973672409056
    vertex 86.44813269743297 157.3219887068692 41.95396997199257
    vertex 86.44813269743297 155.32198870686932 41.95396997199257
  endloop
endfacet
endsolid HydroBox4Lid
