solid Hydro9_Lid
facet normal 0.03166858611980353 -0.9994984245376142 0.0
  outer loop
    vertex 11.330086632220217 -69.0769797899878 23.0
    vertex -6.934414655656784 -69.65568098427731 0.0
    vertex 11.330086632220217 -69.0769797899878 0.0
  endloop
endfacet
facet normal 0.03166858611980353 -0.9994984245376142 0.0
  outer loop
    vertex -6.934414655656784 -69.65568098427731 0.0
    vertex 11.330086632220217 -69.0769797899878 23.0
    vertex -6.934414655656784 -69.65568098427731 23.0
  endloop
endfacet
facet normal -0.8814253197519989 0.47232341218712265 0.0
  outer loop
    vertex -56.856381922460415 40.83321974431254 23.0
    vertex -65.4874626309438 24.72634704441275 0.0
    vertex -65.4874626309438 24.72634704441275 23.0
  endloop
endfacet
facet normal -0.8814253197519989 0.47232341218712265 0.0
  outer loop
    vertex -65.4874626309438 24.72634704441275 0.0
    vertex -56.856381922460415 40.83321974431254 23.0
    vertex -56.856381922460415 40.83321974431254 0.0
  endloop
endfacet
facet normal 0.2892787330354774 -0.9572449083768423 0.0
  outer loop
    vertex 28.822461239964802 -63.79079657811716 23.0
    vertex 11.330086632220217 -69.0769797899878 0.0
    vertex 28.822461239964802 -63.79079657811716 0.0
  endloop
endfacet
facet normal 0.2892787330354774 -0.9572449083768423 0.0
  outer loop
    vertex 11.330086632220217 -69.0769797899878 0.0
    vertex 28.822461239964802 -63.79079657811716 23.0
    vertex 11.330086632220217 -69.0769797899878 23.0
  endloop
endfacet
facet normal -0.9736377748153913 0.2280997226051214 0.0
  outer loop
    vertex -65.4874626309438 24.72634704441275 23.0
    vertex -69.65568098427731 6.934414655656784 0.0
    vertex -69.65568098427731 6.934414655656784 23.0
  endloop
endfacet
facet normal -0.9736377748153913 0.2280997226051214 0.0
  outer loop
    vertex -69.65568098427731 6.934414655656784 0.0
    vertex -65.4874626309438 24.72634704441275 23.0
    vertex -65.4874626309438 24.72634704441275 0.0
  endloop
endfacet
facet normal 0.5271750123504917 -0.8497567336321962 0.0
  outer loop
    vertex 44.35063274557508 -54.1573759987236 23.0
    vertex 28.822461239964802 -63.79079657811716 0.0
    vertex 44.35063274557508 -54.1573759987236 0.0
  endloop
endfacet
facet normal 0.5271750123504917 -0.8497567336321962 0.0
  outer loop
    vertex 28.822461239964802 -63.79079657811716 0.0
    vertex 44.35063274557508 -54.1573759987236 23.0
    vertex 28.822461239964802 -63.79079657811716 23.0
  endloop
endfacet
facet normal 0.8814253197519994 -0.4723234121871217 0.0
  outer loop
    vertex 65.4874626309438 -24.726347044412726 0.0
    vertex 56.856381922460436 -40.83321974431251 23.0
    vertex 56.856381922460436 -40.83321974431251 0.0
  endloop
endfacet
facet normal 0.8814253197519994 -0.4723234121871217 0.0
  outer loop
    vertex 56.856381922460436 -40.83321974431251 23.0
    vertex 65.4874626309438 -24.726347044412726 0.0
    vertex 65.4874626309438 -24.726347044412726 23.0
  endloop
endfacet
facet normal -0.5271750123504914 0.8497567336321962 0.0
  outer loop
    vertex -44.35063274557507 54.157375998723616 23.0
    vertex -28.82246123996478 63.79079657811716 0.0
    vertex -44.35063274557507 54.157375998723616 0.0
  endloop
endfacet
facet normal -0.5271750123504914 0.8497567336321962 0.0
  outer loop
    vertex -28.82246123996478 63.79079657811716 0.0
    vertex -44.35063274557507 54.157375998723616 23.0
    vertex -28.82246123996478 63.79079657811716 23.0
  endloop
endfacet
facet normal 0.9736377748153914 -0.2280997226051213 0.0
  outer loop
    vertex 69.65568098427731 -6.9344146556567505 0.0
    vertex 65.4874626309438 -24.726347044412726 23.0
    vertex 65.4874626309438 -24.726347044412726 0.0
  endloop
endfacet
facet normal 0.9736377748153914 -0.2280997226051213 0.0
  outer loop
    vertex 65.4874626309438 -24.726347044412726 23.0
    vertex 69.65568098427731 -6.9344146556567505 0.0
    vertex 69.65568098427731 -6.9344146556567505 23.0
  endloop
endfacet
facet normal -0.9994984245376142 -0.031668586119803555 -0.0
  outer loop
    vertex -69.65568098427731 6.934414655656784 23.0
    vertex -69.0769797899878 -11.330086632220207 0.0
    vertex -69.0769797899878 -11.330086632220207 23.0
  endloop
endfacet
facet normal -0.9994984245376142 -0.031668586119803555 -0.0
  outer loop
    vertex -69.0769797899878 -11.330086632220207 0.0
    vertex -69.65568098427731 6.934414655656784 23.0
    vertex -69.65568098427731 6.934414655656784 0.0
  endloop
endfacet
facet normal -0.03166858611980361 0.9994984245376142 0.0
  outer loop
    vertex -11.330086632220207 69.07697978998779 23.0
    vertex 6.9344146556567505 69.65568098427731 0.0
    vertex -11.330086632220207 69.07697978998779 0.0
  endloop
endfacet
facet normal -0.03166858611980361 0.9994984245376142 0.0
  outer loop
    vertex 6.9344146556567505 69.65568098427731 0.0
    vertex -11.330086632220207 69.07697978998779 23.0
    vertex 6.9344146556567505 69.65568098427731 23.0
  endloop
endfacet
facet normal 0.684359041779914 0.7291451857717214 0.0
  outer loop
    vertex 40.833219744312515 56.856381922460436 23.0
    vertex 54.157375998723616 44.35063274557506 0.0
    vertex 40.833219744312515 56.856381922460436 0.0
  endloop
endfacet
facet normal 0.684359041779914 0.7291451857717214 0.0
  outer loop
    vertex 54.157375998723616 44.35063274557506 0.0
    vertex 40.833219744312515 56.856381922460436 23.0
    vertex 54.157375998723616 44.35063274557506 23.0
  endloop
endfacet
facet normal -0.47232341218712215 -0.8814253197519991 -0.0
  outer loop
    vertex -24.726347044412755 -65.4874626309438 23.0
    vertex -40.833219744312515 -56.856381922460436 0.0
    vertex -24.726347044412755 -65.4874626309438 0.0
  endloop
endfacet
facet normal -0.47232341218712215 -0.8814253197519991 -0.0
  outer loop
    vertex -40.833219744312515 -56.856381922460436 0.0
    vertex -24.726347044412755 -65.4874626309438 23.0
    vertex -40.833219744312515 -56.856381922460436 23.0
  endloop
endfacet
facet normal -0.7291451857717213 0.6843590417799141 0.0
  outer loop
    vertex -44.35063274557507 54.157375998723616 23.0
    vertex -56.856381922460415 40.83321974431254 0.0
    vertex -56.856381922460415 40.83321974431254 23.0
  endloop
endfacet
facet normal -0.7291451857717213 0.6843590417799141 0.0
  outer loop
    vertex -56.856381922460415 40.83321974431254 0.0
    vertex -44.35063274557507 54.157375998723616 23.0
    vertex -44.35063274557507 54.157375998723616 0.0
  endloop
endfacet
facet normal 0.7291451857717214 -0.6843590417799139 0.0
  outer loop
    vertex 56.856381922460436 -40.83321974431251 0.0
    vertex 44.35063274557508 -54.1573759987236 23.0
    vertex 44.35063274557508 -54.1573759987236 0.0
  endloop
endfacet
facet normal 0.7291451857717214 -0.6843590417799139 0.0
  outer loop
    vertex 44.35063274557508 -54.1573759987236 23.0
    vertex 56.856381922460436 -40.83321974431251 0.0
    vertex 56.856381922460436 -40.83321974431251 23.0
  endloop
endfacet
facet normal 0.22809972260512057 0.9736377748153916 0.0
  outer loop
    vertex 6.9344146556567505 69.65568098427731 23.0
    vertex 24.72634704441275 65.4874626309438 0.0
    vertex 6.9344146556567505 69.65568098427731 0.0
  endloop
endfacet
facet normal 0.22809972260512057 0.9736377748153916 0.0
  outer loop
    vertex 24.72634704441275 65.4874626309438 0.0
    vertex 6.9344146556567505 69.65568098427731 23.0
    vertex 24.72634704441275 65.4874626309438 23.0
  endloop
endfacet
facet normal -0.8497567336321958 -0.5271750123504919 -0.0
  outer loop
    vertex -63.79079657811719 -28.82246123996477 23.0
    vertex -54.15737599872362 -44.350632745575034 0.0
    vertex -54.15737599872362 -44.350632745575034 23.0
  endloop
endfacet
facet normal -0.8497567336321958 -0.5271750123504919 -0.0
  outer loop
    vertex -54.15737599872362 -44.350632745575034 0.0
    vertex -63.79079657811719 -28.82246123996477 23.0
    vertex -63.79079657811719 -28.82246123996477 0.0
  endloop
endfacet
facet normal -0.6843590417799148 -0.7291451857717205 -0.0
  outer loop
    vertex -40.833219744312515 -56.856381922460436 23.0
    vertex -54.15737599872362 -44.350632745575034 0.0
    vertex -40.833219744312515 -56.856381922460436 0.0
  endloop
endfacet
facet normal -0.6843590417799148 -0.7291451857717205 -0.0
  outer loop
    vertex -54.15737599872362 -44.350632745575034 0.0
    vertex -40.833219744312515 -56.856381922460436 23.0
    vertex -54.15737599872362 -44.350632745575034 23.0
  endloop
endfacet
facet normal -0.22809972260512149 -0.9736377748153913 -0.0
  outer loop
    vertex -6.934414655656784 -69.65568098427731 23.0
    vertex -24.726347044412755 -65.4874626309438 0.0
    vertex -6.934414655656784 -69.65568098427731 0.0
  endloop
endfacet
facet normal -0.22809972260512149 -0.9736377748153913 -0.0
  outer loop
    vertex -24.726347044412755 -65.4874626309438 0.0
    vertex -6.934414655656784 -69.65568098427731 23.0
    vertex -24.726347044412755 -65.4874626309438 23.0
  endloop
endfacet
facet normal 0.9994984245376141 0.0316685861198036 0.0
  outer loop
    vertex 69.07697978998779 11.330086632220207 0.0
    vertex 69.65568098427731 -6.9344146556567505 23.0
    vertex 69.65568098427731 -6.9344146556567505 0.0
  endloop
endfacet
facet normal 0.9994984245376141 0.0316685861198036 0.0
  outer loop
    vertex 69.65568098427731 -6.9344146556567505 23.0
    vertex 69.07697978998779 11.330086632220207 0.0
    vertex 69.07697978998779 11.330086632220207 23.0
  endloop
endfacet
facet normal 0.4723234121871225 0.8814253197519989 0.0
  outer loop
    vertex 24.72634704441275 65.4874626309438 23.0
    vertex 40.833219744312515 56.856381922460436 0.0
    vertex 24.72634704441275 65.4874626309438 0.0
  endloop
endfacet
facet normal 0.4723234121871225 0.8814253197519989 0.0
  outer loop
    vertex 40.833219744312515 56.856381922460436 0.0
    vertex 24.72634704441275 65.4874626309438 23.0
    vertex 40.833219744312515 56.856381922460436 23.0
  endloop
endfacet
facet normal 0.0 0.0 1.0
  outer loop
    vertex -66.09099226174814 -10.840321482085722 3.0
    vertex -62.6566390010375 23.657502342197724 3.0
    vertex -66.64467796529127 6.634661022241079 3.0
  endloop
endfacet
facet normal 0.0 0.0 1.0
  outer loop
    vertex -62.6566390010375 23.657502342197724 3.0
    vertex -66.09099226174814 -10.840321482085722 3.0
    vertex -61.0333146560958 -27.5765539918864 3.0
  endloop
endfacet
facet normal 0.0 0.0 1.0
  outer loop
    vertex -62.6566390010375 23.657502342197724 3.0
    vertex -61.0333146560958 -27.5765539918864 3.0
    vertex -54.39865363385471 39.068123973404816 3.0
  endloop
endfacet
facet normal 0.0 0.0 1.0
  outer loop
    vertex -54.39865363385471 39.068123973404816 3.0
    vertex -61.0333146560958 -27.5765539918864 3.0
    vertex -51.81631751895184 -42.433489919550425 3.0
  endloop
endfacet
facet normal 0.0 0.0 1.0
  outer loop
    vertex -54.39865363385471 39.068123973404816 3.0
    vertex -51.81631751895184 -42.433489919550425 3.0
    vertex -42.433489919550446 51.81631751895183 3.0
  endloop
endfacet
facet normal 0.0 0.0 1.0
  outer loop
    vertex -42.433489919550446 51.81631751895183 3.0
    vertex -51.81631751895184 -42.433489919550425 3.0
    vertex -39.06812397340484 -54.39865363385471 3.0
  endloop
endfacet
facet normal 0.0 0.0 1.0
  outer loop
    vertex -42.433489919550446 51.81631751895183 3.0
    vertex -39.06812397340484 -54.39865363385471 3.0
    vertex -27.576553991886453 61.03331465609577 3.0
  endloop
endfacet
facet normal 0.0 0.0 1.0
  outer loop
    vertex -27.576553991886453 61.03331465609577 3.0
    vertex -39.06812397340484 -54.39865363385471 3.0
    vertex -23.657502342197763 -62.65663900103748 3.0
  endloop
endfacet
facet normal 0.0 0.0 1.0
  outer loop
    vertex -27.576553991886453 61.03331465609577 3.0
    vertex -23.657502342197763 -62.65663900103748 3.0
    vertex -10.840321482085733 66.09099226174814 3.0
  endloop
endfacet
facet normal 0.0 0.0 1.0
  outer loop
    vertex -10.840321482085733 66.09099226174814 3.0
    vertex -23.657502342197763 -62.65663900103748 3.0
    vertex -6.634661022241079 -66.64467796529127 3.0
  endloop
endfacet
facet normal 0.0 0.0 1.0
  outer loop
    vertex -10.840321482085733 66.09099226174814 3.0
    vertex -6.634661022241079 -66.64467796529127 3.0
    vertex 6.634661022240954 66.64467796529125 3.0
  endloop
endfacet
facet normal 0.0 0.0 1.0
  outer loop
    vertex 6.634661022240954 66.64467796529125 3.0
    vertex -6.634661022241079 -66.64467796529127 3.0
    vertex 10.840321482085654 -66.09099226174817 3.0
  endloop
endfacet
facet normal 0.0 0.0 1.0
  outer loop
    vertex 6.634661022240954 66.64467796529125 3.0
    vertex 10.840321482085654 -66.09099226174817 3.0
    vertex 23.657502342197724 62.65663900103752 3.0
  endloop
endfacet
facet normal 0.0 0.0 1.0
  outer loop
    vertex 23.657502342197724 62.65663900103752 3.0
    vertex 10.840321482085654 -66.09099226174817 3.0
    vertex 27.576553991886513 -61.03331465609573 3.0
  endloop
endfacet
facet normal 0.0 0.0 1.0
  outer loop
    vertex 23.657502342197724 62.65663900103752 3.0
    vertex 27.576553991886513 -61.03331465609573 3.0
    vertex 39.06812397340479 54.39865363385473 3.0
  endloop
endfacet
facet normal 0.0 0.0 1.0
  outer loop
    vertex 39.06812397340479 54.39865363385473 3.0
    vertex 27.576553991886513 -61.03331465609573 3.0
    vertex 42.43348991955048 -51.8163175189518 3.0
  endloop
endfacet
facet normal 0.0 0.0 1.0
  outer loop
    vertex 39.06812397340479 54.39865363385473 3.0
    vertex 42.43348991955048 -51.8163175189518 3.0
    vertex 51.81631751895188 42.43348991955041 3.0
  endloop
endfacet
facet normal 0.0 0.0 1.0
  outer loop
    vertex 51.81631751895188 42.43348991955041 3.0
    vertex 42.43348991955048 -51.8163175189518 3.0
    vertex 54.39865363385473 -39.068123973404795 3.0
  endloop
endfacet
facet normal 0.0 0.0 1.0
  outer loop
    vertex 51.81631751895188 42.43348991955041 3.0
    vertex 54.39865363385473 -39.068123973404795 3.0
    vertex 61.0333146560957 27.576553991886538 3.0
  endloop
endfacet
facet normal 0.0 0.0 1.0
  outer loop
    vertex 61.0333146560957 27.576553991886538 3.0
    vertex 54.39865363385473 -39.068123973404795 3.0
    vertex 62.6566390010375 -23.657502342197695 3.0
  endloop
endfacet
facet normal 0.0 0.0 1.0
  outer loop
    vertex 61.0333146560957 27.576553991886538 3.0
    vertex 62.6566390010375 -23.657502342197695 3.0
    vertex 66.09099226174816 10.840321482085688 3.0
  endloop
endfacet
facet normal 0.0 0.0 1.0
  outer loop
    vertex 66.09099226174816 10.840321482085688 3.0
    vertex 62.6566390010375 -23.657502342197695 3.0
    vertex 66.64467796529125 -6.634661022240954 3.0
  endloop
endfacet
facet normal 0.9572449083768423 0.2892787330354776 0.0
  outer loop
    vertex 63.79079657811716 28.82246123996479 0.0
    vertex 69.07697978998779 11.330086632220207 23.0
    vertex 69.07697978998779 11.330086632220207 0.0
  endloop
endfacet
facet normal 0.9572449083768423 0.2892787330354776 0.0
  outer loop
    vertex 69.07697978998779 11.330086632220207 23.0
    vertex 63.79079657811716 28.82246123996479 0.0
    vertex 63.79079657811716 28.82246123996479 23.0
  endloop
endfacet
facet normal -0.9572449083768424 -0.2892787330354766 -0.0
  outer loop
    vertex -69.0769797899878 -11.330086632220207 23.0
    vertex -63.79079657811719 -28.82246123996477 0.0
    vertex -63.79079657811719 -28.82246123996477 23.0
  endloop
endfacet
facet normal -0.9572449083768424 -0.2892787330354766 -0.0
  outer loop
    vertex -63.79079657811719 -28.82246123996477 0.0
    vertex -69.0769797899878 -11.330086632220207 23.0
    vertex -69.0769797899878 -11.330086632220207 0.0
  endloop
endfacet
facet normal 0.0 0.0 -1.0
  outer loop
    vertex -65.4874626309438 24.72634704441275 0.0
    vertex -69.0769797899878 -11.330086632220207 0.0
    vertex -69.65568098427731 6.934414655656784 0.0
  endloop
endfacet
facet normal 0.0 0.0 -1.0
  outer loop
    vertex -69.0769797899878 -11.330086632220207 0.0
    vertex -65.4874626309438 24.72634704441275 0.0
    vertex -63.79079657811719 -28.82246123996477 0.0
  endloop
endfacet
facet normal 0.0 0.0 -1.0
  outer loop
    vertex -63.79079657811719 -28.82246123996477 0.0
    vertex -65.4874626309438 24.72634704441275 0.0
    vertex -56.856381922460415 40.83321974431254 0.0
  endloop
endfacet
facet normal 0.0 0.0 -1.0
  outer loop
    vertex -63.79079657811719 -28.82246123996477 0.0
    vertex -56.856381922460415 40.83321974431254 0.0
    vertex -54.15737599872362 -44.350632745575034 0.0
  endloop
endfacet
facet normal 0.0 0.0 -1.0
  outer loop
    vertex -54.15737599872362 -44.350632745575034 0.0
    vertex -56.856381922460415 40.83321974431254 0.0
    vertex -44.35063274557507 54.157375998723616 0.0
  endloop
endfacet
facet normal 0.0 0.0 -1.0
  outer loop
    vertex -54.15737599872362 -44.350632745575034 0.0
    vertex -44.35063274557507 54.157375998723616 0.0
    vertex -40.833219744312515 -56.856381922460436 0.0
  endloop
endfacet
facet normal 0.0 0.0 -1.0
  outer loop
    vertex -40.833219744312515 -56.856381922460436 0.0
    vertex -44.35063274557507 54.157375998723616 0.0
    vertex -28.82246123996478 63.79079657811716 0.0
  endloop
endfacet
facet normal 0.0 0.0 -1.0
  outer loop
    vertex -40.833219744312515 -56.856381922460436 0.0
    vertex -28.82246123996478 63.79079657811716 0.0
    vertex -24.726347044412755 -65.4874626309438 0.0
  endloop
endfacet
facet normal 0.0 0.0 -1.0
  outer loop
    vertex -24.726347044412755 -65.4874626309438 0.0
    vertex -28.82246123996478 63.79079657811716 0.0
    vertex -11.330086632220207 69.07697978998779 0.0
  endloop
endfacet
facet normal 0.0 0.0 -1.0
  outer loop
    vertex -24.726347044412755 -65.4874626309438 0.0
    vertex -11.330086632220207 69.07697978998779 0.0
    vertex -6.934414655656784 -69.65568098427731 0.0
  endloop
endfacet
facet normal 0.0 0.0 -1.0
  outer loop
    vertex -6.934414655656784 -69.65568098427731 0.0
    vertex -11.330086632220207 69.07697978998779 0.0
    vertex 6.9344146556567505 69.65568098427731 0.0
  endloop
endfacet
facet normal 0.0 0.0 -1.0
  outer loop
    vertex -6.934414655656784 -69.65568098427731 0.0
    vertex 6.9344146556567505 69.65568098427731 0.0
    vertex 11.330086632220217 -69.0769797899878 0.0
  endloop
endfacet
facet normal 0.0 0.0 -1.0
  outer loop
    vertex 11.330086632220217 -69.0769797899878 0.0
    vertex 6.9344146556567505 69.65568098427731 0.0
    vertex 24.72634704441275 65.4874626309438 0.0
  endloop
endfacet
facet normal 0.0 0.0 -1.0
  outer loop
    vertex 11.330086632220217 -69.0769797899878 0.0
    vertex 24.72634704441275 65.4874626309438 0.0
    vertex 28.822461239964802 -63.79079657811716 0.0
  endloop
endfacet
facet normal 0.0 0.0 -1.0
  outer loop
    vertex 28.822461239964802 -63.79079657811716 0.0
    vertex 24.72634704441275 65.4874626309438 0.0
    vertex 40.833219744312515 56.856381922460436 0.0
  endloop
endfacet
facet normal 0.0 0.0 -1.0
  outer loop
    vertex 28.822461239964802 -63.79079657811716 0.0
    vertex 40.833219744312515 56.856381922460436 0.0
    vertex 44.35063274557508 -54.1573759987236 0.0
  endloop
endfacet
facet normal 0.0 0.0 -1.0
  outer loop
    vertex 44.35063274557508 -54.1573759987236 0.0
    vertex 40.833219744312515 56.856381922460436 0.0
    vertex 54.157375998723616 44.35063274557506 0.0
  endloop
endfacet
facet normal 0.0 0.0 -1.0
  outer loop
    vertex 44.35063274557508 -54.1573759987236 0.0
    vertex 54.157375998723616 44.35063274557506 0.0
    vertex 56.856381922460436 -40.83321974431251 0.0
  endloop
endfacet
facet normal 0.0 0.0 -1.0
  outer loop
    vertex 56.856381922460436 -40.83321974431251 0.0
    vertex 54.157375998723616 44.35063274557506 0.0
    vertex 63.79079657811716 28.82246123996479 0.0
  endloop
endfacet
facet normal 0.0 0.0 -1.0
  outer loop
    vertex 56.856381922460436 -40.83321974431251 0.0
    vertex 63.79079657811716 28.82246123996479 0.0
    vertex 65.4874626309438 -24.726347044412726 0.0
  endloop
endfacet
facet normal 0.0 0.0 -1.0
  outer loop
    vertex 65.4874626309438 -24.726347044412726 0.0
    vertex 63.79079657811716 28.82246123996479 0.0
    vertex 69.07697978998779 11.330086632220207 0.0
  endloop
endfacet
facet normal 0.0 0.0 -1.0
  outer loop
    vertex 65.4874626309438 -24.726347044412726 0.0
    vertex 69.07697978998779 11.330086632220207 0.0
    vertex 69.65568098427731 -6.9344146556567505 0.0
  endloop
endfacet
facet normal -0.2892787330354771 0.9572449083768423 0.0
  outer loop
    vertex -28.82246123996478 63.79079657811716 23.0
    vertex -11.330086632220207 69.07697978998779 0.0
    vertex -28.82246123996478 63.79079657811716 0.0
  endloop
endfacet
facet normal -0.2892787330354771 0.9572449083768423 0.0
  outer loop
    vertex -11.330086632220207 69.07697978998779 0.0
    vertex -28.82246123996478 63.79079657811716 23.0
    vertex -11.330086632220207 69.07697978998779 23.0
  endloop
endfacet
facet normal 0.8497567336321963 0.5271750123504912 0.0
  outer loop
    vertex 54.157375998723616 44.35063274557506 0.0
    vertex 63.79079657811716 28.82246123996479 23.0
    vertex 63.79079657811716 28.82246123996479 0.0
  endloop
endfacet
facet normal 0.8497567336321963 0.5271750123504912 0.0
  outer loop
    vertex 63.79079657811716 28.82246123996479 23.0
    vertex 54.157375998723616 44.35063274557506 0.0
    vertex 54.157375998723616 44.35063274557506 23.0
  endloop
endfacet
facet normal 0.03166858611980484 -0.9994984245376141 0.0
  outer loop
    vertex 6.634661022240954 66.64467796529125 23.0
    vertex -10.840321482085733 66.09099226174814 3.0
    vertex 6.634661022240954 66.64467796529125 3.0
  endloop
endfacet
facet normal 0.03166858611980484 -0.9994984245376141 0.0
  outer loop
    vertex -10.840321482085733 66.09099226174814 3.0
    vertex 6.634661022240954 66.64467796529125 23.0
    vertex -10.840321482085733 66.09099226174814 23.0
  endloop
endfacet
facet normal -0.2280997226051195 -0.9736377748153918 -0.0
  outer loop
    vertex 23.657502342197724 62.65663900103752 23.0
    vertex 6.634661022240954 66.64467796529125 3.0
    vertex 23.657502342197724 62.65663900103752 3.0
  endloop
endfacet
facet normal -0.2280997226051195 -0.9736377748153918 -0.0
  outer loop
    vertex 6.634661022240954 66.64467796529125 3.0
    vertex 23.657502342197724 62.65663900103752 23.0
    vertex 6.634661022240954 66.64467796529125 23.0
  endloop
endfacet
facet normal -0.4723234121871226 -0.8814253197519989 -0.0
  outer loop
    vertex 39.06812397340479 54.39865363385473 23.0
    vertex 23.657502342197724 62.65663900103752 3.0
    vertex 39.06812397340479 54.39865363385473 3.0
  endloop
endfacet
facet normal -0.4723234121871226 -0.8814253197519989 -0.0
  outer loop
    vertex 23.657502342197724 62.65663900103752 3.0
    vertex 39.06812397340479 54.39865363385473 23.0
    vertex 23.657502342197724 62.65663900103752 23.0
  endloop
endfacet
facet normal 0.0 0.0 1.0
  outer loop
    vertex -69.0769797899878 -11.330086632220207 23.0
    vertex -66.09099226174814 -10.840321482085722 23.0
    vertex -66.64467796529127 6.634661022241079 23.0
  endloop
endfacet
facet normal 0.0 0.0 1.0
  outer loop
    vertex -66.09099226174814 -10.840321482085722 23.0
    vertex -69.0769797899878 -11.330086632220207 23.0
    vertex -63.79079657811719 -28.82246123996477 23.0
  endloop
endfacet
facet normal 0.0 0.0 1.0
  outer loop
    vertex -66.09099226174814 -10.840321482085722 23.0
    vertex -63.79079657811719 -28.82246123996477 23.0
    vertex -61.0333146560958 -27.5765539918864 23.0
  endloop
endfacet
facet normal 0.0 0.0 1.0
  outer loop
    vertex -61.0333146560958 -27.5765539918864 23.0
    vertex -63.79079657811719 -28.82246123996477 23.0
    vertex -54.15737599872362 -44.350632745575034 23.0
  endloop
endfacet
facet normal 0.0 0.0 1.0
  outer loop
    vertex -61.0333146560958 -27.5765539918864 23.0
    vertex -54.15737599872362 -44.350632745575034 23.0
    vertex -51.81631751895184 -42.433489919550425 23.0
  endloop
endfacet
facet normal 0.0 0.0 1.0
  outer loop
    vertex -51.81631751895184 -42.433489919550425 23.0
    vertex -54.15737599872362 -44.350632745575034 23.0
    vertex -40.833219744312515 -56.856381922460436 23.0
  endloop
endfacet
facet normal 0.0 0.0 1.0
  outer loop
    vertex -51.81631751895184 -42.433489919550425 23.0
    vertex -40.833219744312515 -56.856381922460436 23.0
    vertex -39.06812397340484 -54.39865363385471 23.0
  endloop
endfacet
facet normal 0.0 0.0 1.0
  outer loop
    vertex -39.06812397340484 -54.39865363385471 23.0
    vertex -40.833219744312515 -56.856381922460436 23.0
    vertex -24.726347044412755 -65.4874626309438 23.0
  endloop
endfacet
facet normal 0.0 0.0 1.0
  outer loop
    vertex -39.06812397340484 -54.39865363385471 23.0
    vertex -24.726347044412755 -65.4874626309438 23.0
    vertex -23.657502342197763 -62.65663900103748 23.0
  endloop
endfacet
facet normal 0.0 0.0 1.0
  outer loop
    vertex -23.657502342197763 -62.65663900103748 23.0
    vertex -24.726347044412755 -65.4874626309438 23.0
    vertex -6.934414655656784 -69.65568098427731 23.0
  endloop
endfacet
facet normal 0.0 0.0 1.0
  outer loop
    vertex -23.657502342197763 -62.65663900103748 23.0
    vertex -6.934414655656784 -69.65568098427731 23.0
    vertex -6.634661022241079 -66.64467796529127 23.0
  endloop
endfacet
facet normal 0.0 0.0 1.0
  outer loop
    vertex -6.634661022241079 -66.64467796529127 23.0
    vertex -6.934414655656784 -69.65568098427731 23.0
    vertex 11.330086632220217 -69.0769797899878 23.0
  endloop
endfacet
facet normal 0.0 0.0 1.0
  outer loop
    vertex -6.634661022241079 -66.64467796529127 23.0
    vertex 11.330086632220217 -69.0769797899878 23.0
    vertex 10.840321482085654 -66.09099226174817 23.0
  endloop
endfacet
facet normal 0.0 0.0 1.0
  outer loop
    vertex 10.840321482085654 -66.09099226174817 23.0
    vertex 11.330086632220217 -69.0769797899878 23.0
    vertex 27.576553991886513 -61.03331465609573 23.0
  endloop
endfacet
facet normal 0.0 0.0 1.0
  outer loop
    vertex 27.576553991886513 -61.03331465609573 23.0
    vertex 11.330086632220217 -69.0769797899878 23.0
    vertex 28.822461239964802 -63.79079657811716 23.0
  endloop
endfacet
facet normal 0.0 0.0 1.0
  outer loop
    vertex 27.576553991886513 -61.03331465609573 23.0
    vertex 28.822461239964802 -63.79079657811716 23.0
    vertex 42.43348991955048 -51.8163175189518 23.0
  endloop
endfacet
facet normal 0.0 0.0 1.0
  outer loop
    vertex 42.43348991955048 -51.8163175189518 23.0
    vertex 28.822461239964802 -63.79079657811716 23.0
    vertex 44.35063274557508 -54.1573759987236 23.0
  endloop
endfacet
facet normal 0.0 0.0 1.0
  outer loop
    vertex 42.43348991955048 -51.8163175189518 23.0
    vertex 44.35063274557508 -54.1573759987236 23.0
    vertex 54.39865363385473 -39.068123973404795 23.0
  endloop
endfacet
facet normal 0.0 0.0 1.0
  outer loop
    vertex 54.39865363385473 -39.068123973404795 23.0
    vertex 44.35063274557508 -54.1573759987236 23.0
    vertex 56.856381922460436 -40.83321974431251 23.0
  endloop
endfacet
facet normal 0.0 0.0 1.0
  outer loop
    vertex 54.39865363385473 -39.068123973404795 23.0
    vertex 56.856381922460436 -40.83321974431251 23.0
    vertex 62.6566390010375 -23.657502342197695 23.0
  endloop
endfacet
facet normal 0.0 0.0 1.0
  outer loop
    vertex 62.6566390010375 -23.657502342197695 23.0
    vertex 56.856381922460436 -40.83321974431251 23.0
    vertex 65.4874626309438 -24.726347044412726 23.0
  endloop
endfacet
facet normal 0.0 0.0 1.0
  outer loop
    vertex 62.6566390010375 -23.657502342197695 23.0
    vertex 65.4874626309438 -24.726347044412726 23.0
    vertex 66.64467796529125 -6.634661022240954 23.0
  endloop
endfacet
facet normal 0.0 0.0 1.0
  outer loop
    vertex 66.64467796529125 -6.634661022240954 23.0
    vertex 65.4874626309438 -24.726347044412726 23.0
    vertex 69.65568098427731 -6.9344146556567505 23.0
  endloop
endfacet
facet normal 0.0 0.0 1.0
  outer loop
    vertex 66.64467796529125 -6.634661022240954 23.0
    vertex 69.65568098427731 -6.9344146556567505 23.0
    vertex 69.07697978998779 11.330086632220207 23.0
  endloop
endfacet
facet normal 0.0 0.0 1.0
  outer loop
    vertex -69.0769797899878 -11.330086632220207 23.0
    vertex -65.4874626309438 24.72634704441275 23.0
    vertex -69.65568098427731 6.934414655656784 23.0
  endloop
endfacet
facet normal 0.0 0.0 1.0
  outer loop
    vertex -65.4874626309438 24.72634704441275 23.0
    vertex -69.0769797899878 -11.330086632220207 23.0
    vertex -66.64467796529127 6.634661022241079 23.0
  endloop
endfacet
facet normal 0.0 0.0 1.0
  outer loop
    vertex -65.4874626309438 24.72634704441275 23.0
    vertex -66.64467796529127 6.634661022241079 23.0
    vertex -62.6566390010375 23.657502342197724 23.0
  endloop
endfacet
facet normal 0.0 0.0 1.0
  outer loop
    vertex -65.4874626309438 24.72634704441275 23.0
    vertex -62.6566390010375 23.657502342197724 23.0
    vertex -56.856381922460415 40.83321974431254 23.0
  endloop
endfacet
facet normal 0.0 0.0 1.0
  outer loop
    vertex -56.856381922460415 40.83321974431254 23.0
    vertex -62.6566390010375 23.657502342197724 23.0
    vertex -54.39865363385471 39.068123973404816 23.0
  endloop
endfacet
facet normal 0.0 0.0 1.0
  outer loop
    vertex -56.856381922460415 40.83321974431254 23.0
    vertex -54.39865363385471 39.068123973404816 23.0
    vertex -44.35063274557507 54.157375998723616 23.0
  endloop
endfacet
facet normal 0.0 0.0 1.0
  outer loop
    vertex -44.35063274557507 54.157375998723616 23.0
    vertex -54.39865363385471 39.068123973404816 23.0
    vertex -42.433489919550446 51.81631751895183 23.0
  endloop
endfacet
facet normal 0.0 0.0 1.0
  outer loop
    vertex -44.35063274557507 54.157375998723616 23.0
    vertex -42.433489919550446 51.81631751895183 23.0
    vertex -28.82246123996478 63.79079657811716 23.0
  endloop
endfacet
facet normal 0.0 0.0 1.0
  outer loop
    vertex -28.82246123996478 63.79079657811716 23.0
    vertex -42.433489919550446 51.81631751895183 23.0
    vertex -27.576553991886453 61.03331465609577 23.0
  endloop
endfacet
facet normal 0.0 0.0 1.0
  outer loop
    vertex -28.82246123996478 63.79079657811716 23.0
    vertex -27.576553991886453 61.03331465609577 23.0
    vertex -11.330086632220207 69.07697978998779 23.0
  endloop
endfacet
facet normal 0.0 0.0 1.0
  outer loop
    vertex -11.330086632220207 69.07697978998779 23.0
    vertex -27.576553991886453 61.03331465609577 23.0
    vertex -10.840321482085733 66.09099226174814 23.0
  endloop
endfacet
facet normal 0.0 0.0 1.0
  outer loop
    vertex -11.330086632220207 69.07697978998779 23.0
    vertex -10.840321482085733 66.09099226174814 23.0
    vertex 6.9344146556567505 69.65568098427731 23.0
  endloop
endfacet
facet normal 0.0 0.0 1.0
  outer loop
    vertex 6.9344146556567505 69.65568098427731 23.0
    vertex -10.840321482085733 66.09099226174814 23.0
    vertex 6.634661022240954 66.64467796529125 23.0
  endloop
endfacet
facet normal 0.0 0.0 1.0
  outer loop
    vertex 6.9344146556567505 69.65568098427731 23.0
    vertex 6.634661022240954 66.64467796529125 23.0
    vertex 23.657502342197724 62.65663900103752 23.0
  endloop
endfacet
facet normal 0.0 0.0 1.0
  outer loop
    vertex 6.9344146556567505 69.65568098427731 23.0
    vertex 23.657502342197724 62.65663900103752 23.0
    vertex 24.72634704441275 65.4874626309438 23.0
  endloop
endfacet
facet normal 0.0 0.0 1.0
  outer loop
    vertex 24.72634704441275 65.4874626309438 23.0
    vertex 23.657502342197724 62.65663900103752 23.0
    vertex 39.06812397340479 54.39865363385473 23.0
  endloop
endfacet
facet normal 0.0 0.0 1.0
  outer loop
    vertex 24.72634704441275 65.4874626309438 23.0
    vertex 39.06812397340479 54.39865363385473 23.0
    vertex 40.833219744312515 56.856381922460436 23.0
  endloop
endfacet
facet normal 0.0 0.0 1.0
  outer loop
    vertex 40.833219744312515 56.856381922460436 23.0
    vertex 39.06812397340479 54.39865363385473 23.0
    vertex 51.81631751895188 42.43348991955041 23.0
  endloop
endfacet
facet normal 0.0 0.0 1.0
  outer loop
    vertex 40.833219744312515 56.856381922460436 23.0
    vertex 51.81631751895188 42.43348991955041 23.0
    vertex 54.157375998723616 44.35063274557506 23.0
  endloop
endfacet
facet normal 0.0 0.0 1.0
  outer loop
    vertex 54.157375998723616 44.35063274557506 23.0
    vertex 51.81631751895188 42.43348991955041 23.0
    vertex 61.0333146560957 27.576553991886538 23.0
  endloop
endfacet
facet normal 0.0 0.0 1.0
  outer loop
    vertex 54.157375998723616 44.35063274557506 23.0
    vertex 61.0333146560957 27.576553991886538 23.0
    vertex 63.79079657811716 28.82246123996479 23.0
  endloop
endfacet
facet normal 0.0 0.0 1.0
  outer loop
    vertex 63.79079657811716 28.82246123996479 23.0
    vertex 61.0333146560957 27.576553991886538 23.0
    vertex 66.09099226174816 10.840321482085688 23.0
  endloop
endfacet
facet normal 0.0 0.0 1.0
  outer loop
    vertex 63.79079657811716 28.82246123996479 23.0
    vertex 66.09099226174816 10.840321482085688 23.0
    vertex 69.07697978998779 11.330086632220207 23.0
  endloop
endfacet
facet normal 0.0 0.0 1.0
  outer loop
    vertex 69.07697978998779 11.330086632220207 23.0
    vertex 66.09099226174816 10.840321482085688 23.0
    vertex 66.64467796529125 -6.634661022240954 23.0
  endloop
endfacet
facet normal -0.684359041779914 -0.7291451857717214 -0.0
  outer loop
    vertex 51.81631751895188 42.43348991955041 23.0
    vertex 39.06812397340479 54.39865363385473 3.0
    vertex 51.81631751895188 42.43348991955041 3.0
  endloop
endfacet
facet normal -0.684359041779914 -0.7291451857717214 -0.0
  outer loop
    vertex 39.06812397340479 54.39865363385473 3.0
    vertex 51.81631751895188 42.43348991955041 23.0
    vertex 39.06812397340479 54.39865363385473 23.0
  endloop
endfacet
facet normal -0.8497567336321965 -0.527175012350491 -0.0
  outer loop
    vertex 51.81631751895188 42.43348991955041 23.0
    vertex 61.0333146560957 27.576553991886538 3.0
    vertex 61.0333146560957 27.576553991886538 23.0
  endloop
endfacet
facet normal -0.8497567336321965 -0.527175012350491 -0.0
  outer loop
    vertex 61.0333146560957 27.576553991886538 3.0
    vertex 51.81631751895188 42.43348991955041 23.0
    vertex 51.81631751895188 42.43348991955041 3.0
  endloop
endfacet
facet normal -0.9572449083768417 -0.28927873303547896 -0.0
  outer loop
    vertex 61.0333146560957 27.576553991886538 23.0
    vertex 66.09099226174816 10.840321482085688 3.0
    vertex 66.09099226174816 10.840321482085688 23.0
  endloop
endfacet
facet normal -0.9572449083768417 -0.28927873303547896 -0.0
  outer loop
    vertex 66.09099226174816 10.840321482085688 3.0
    vertex 61.0333146560957 27.576553991886538 23.0
    vertex 61.0333146560957 27.576553991886538 3.0
  endloop
endfacet
facet normal -0.9994984245376141 -0.031668586119803624 -0.0
  outer loop
    vertex 66.09099226174816 10.840321482085688 23.0
    vertex 66.64467796529125 -6.634661022240954 3.0
    vertex 66.64467796529125 -6.634661022240954 23.0
  endloop
endfacet
facet normal -0.9994984245376141 -0.031668586119803624 -0.0
  outer loop
    vertex 66.64467796529125 -6.634661022240954 3.0
    vertex 66.09099226174816 10.840321482085688 23.0
    vertex 66.09099226174816 10.840321482085688 3.0
  endloop
endfacet
facet normal -0.9736377748153917 0.22809972260512038 0.0
  outer loop
    vertex 66.64467796529125 -6.634661022240954 23.0
    vertex 62.6566390010375 -23.657502342197695 3.0
    vertex 62.6566390010375 -23.657502342197695 23.0
  endloop
endfacet
facet normal -0.9736377748153917 0.22809972260512038 0.0
  outer loop
    vertex 62.6566390010375 -23.657502342197695 3.0
    vertex 66.64467796529125 -6.634661022240954 23.0
    vertex 66.64467796529125 -6.634661022240954 3.0
  endloop
endfacet
facet normal -0.8814253197519997 0.4723234121871215 0.0
  outer loop
    vertex 62.6566390010375 -23.657502342197695 23.0
    vertex 54.39865363385473 -39.068123973404795 3.0
    vertex 54.39865363385473 -39.068123973404795 23.0
  endloop
endfacet
facet normal -0.8814253197519997 0.4723234121871215 0.0
  outer loop
    vertex 54.39865363385473 -39.068123973404795 3.0
    vertex 62.6566390010375 -23.657502342197695 23.0
    vertex 62.6566390010375 -23.657502342197695 3.0
  endloop
endfacet
facet normal -0.7291451857717214 0.684359041779914 0.0
  outer loop
    vertex 54.39865363385473 -39.068123973404795 23.0
    vertex 42.43348991955048 -51.8163175189518 3.0
    vertex 42.43348991955048 -51.8163175189518 23.0
  endloop
endfacet
facet normal -0.7291451857717214 0.684359041779914 0.0
  outer loop
    vertex 42.43348991955048 -51.8163175189518 3.0
    vertex 54.39865363385473 -39.068123973404795 23.0
    vertex 54.39865363385473 -39.068123973404795 3.0
  endloop
endfacet
facet normal -0.5271750123504924 0.8497567336321955 0.0
  outer loop
    vertex 27.576553991886513 -61.03331465609573 23.0
    vertex 42.43348991955048 -51.8163175189518 3.0
    vertex 27.576553991886513 -61.03331465609573 3.0
  endloop
endfacet
facet normal -0.5271750123504924 0.8497567336321955 0.0
  outer loop
    vertex 42.43348991955048 -51.8163175189518 3.0
    vertex 27.576553991886513 -61.03331465609573 23.0
    vertex 42.43348991955048 -51.8163175189518 23.0
  endloop
endfacet
facet normal -0.28927873303547813 0.957244908376842 0.0
  outer loop
    vertex 10.840321482085654 -66.09099226174817 23.0
    vertex 27.576553991886513 -61.03331465609573 3.0
    vertex 10.840321482085654 -66.09099226174817 3.0
  endloop
endfacet
facet normal -0.28927873303547813 0.957244908376842 0.0
  outer loop
    vertex 27.576553991886513 -61.03331465609573 3.0
    vertex 10.840321482085654 -66.09099226174817 23.0
    vertex 27.576553991886513 -61.03331465609573 23.0
  endloop
endfacet
facet normal -0.031668586119802805 0.9994984245376141 0.0
  outer loop
    vertex -6.634661022241079 -66.64467796529127 23.0
    vertex 10.840321482085654 -66.09099226174817 3.0
    vertex -6.634661022241079 -66.64467796529127 3.0
  endloop
endfacet
facet normal -0.031668586119802805 0.9994984245376141 0.0
  outer loop
    vertex 10.840321482085654 -66.09099226174817 3.0
    vertex -6.634661022241079 -66.64467796529127 23.0
    vertex 10.840321482085654 -66.09099226174817 23.0
  endloop
endfacet
facet normal 0.2280997226051218 0.9736377748153914 0.0
  outer loop
    vertex -23.657502342197763 -62.65663900103748 23.0
    vertex -6.634661022241079 -66.64467796529127 3.0
    vertex -23.657502342197763 -62.65663900103748 3.0
  endloop
endfacet
facet normal 0.2280997226051218 0.9736377748153914 0.0
  outer loop
    vertex -6.634661022241079 -66.64467796529127 3.0
    vertex -23.657502342197763 -62.65663900103748 23.0
    vertex -6.634661022241079 -66.64467796529127 23.0
  endloop
endfacet
facet normal 0.4723234121871226 0.8814253197519989 0.0
  outer loop
    vertex -39.06812397340484 -54.39865363385471 23.0
    vertex -23.657502342197763 -62.65663900103748 3.0
    vertex -39.06812397340484 -54.39865363385471 3.0
  endloop
endfacet
facet normal 0.4723234121871226 0.8814253197519989 0.0
  outer loop
    vertex -23.657502342197763 -62.65663900103748 3.0
    vertex -39.06812397340484 -54.39865363385471 23.0
    vertex -23.657502342197763 -62.65663900103748 23.0
  endloop
endfacet
facet normal 0.684359041779915 0.7291451857717204 0.0
  outer loop
    vertex -51.81631751895184 -42.433489919550425 23.0
    vertex -39.06812397340484 -54.39865363385471 3.0
    vertex -51.81631751895184 -42.433489919550425 3.0
  endloop
endfacet
facet normal 0.684359041779915 0.7291451857717204 0.0
  outer loop
    vertex -39.06812397340484 -54.39865363385471 3.0
    vertex -51.81631751895184 -42.433489919550425 23.0
    vertex -39.06812397340484 -54.39865363385471 23.0
  endloop
endfacet
facet normal 0.8497567336321958 0.527175012350492 0.0
  outer loop
    vertex -61.0333146560958 -27.5765539918864 3.0
    vertex -51.81631751895184 -42.433489919550425 23.0
    vertex -51.81631751895184 -42.433489919550425 3.0
  endloop
endfacet
facet normal 0.8497567336321958 0.527175012350492 0.0
  outer loop
    vertex -51.81631751895184 -42.433489919550425 23.0
    vertex -61.0333146560958 -27.5765539918864 3.0
    vertex -61.0333146560958 -27.5765539918864 23.0
  endloop
endfacet
facet normal 0.9572449083768425 0.28927873303547635 0.0
  outer loop
    vertex -66.09099226174814 -10.840321482085722 3.0
    vertex -61.0333146560958 -27.5765539918864 23.0
    vertex -61.0333146560958 -27.5765539918864 3.0
  endloop
endfacet
facet normal 0.9572449083768425 0.28927873303547635 0.0
  outer loop
    vertex -61.0333146560958 -27.5765539918864 23.0
    vertex -66.09099226174814 -10.840321482085722 3.0
    vertex -66.09099226174814 -10.840321482085722 23.0
  endloop
endfacet
facet normal 0.9994984245376141 0.03166858611980398 0.0
  outer loop
    vertex -66.64467796529127 6.634661022241079 3.0
    vertex -66.09099226174814 -10.840321482085722 23.0
    vertex -66.09099226174814 -10.840321482085722 3.0
  endloop
endfacet
facet normal 0.9994984245376141 0.03166858611980398 0.0
  outer loop
    vertex -66.09099226174814 -10.840321482085722 23.0
    vertex -66.64467796529127 6.634661022241079 3.0
    vertex -66.64467796529127 6.634661022241079 23.0
  endloop
endfacet
facet normal 0.9736377748153913 -0.22809972260512149 0.0
  outer loop
    vertex -62.6566390010375 23.657502342197724 3.0
    vertex -66.64467796529127 6.634661022241079 23.0
    vertex -66.64467796529127 6.634661022241079 3.0
  endloop
endfacet
facet normal 0.9736377748153913 -0.22809972260512149 0.0
  outer loop
    vertex -66.64467796529127 6.634661022241079 23.0
    vertex -62.6566390010375 23.657502342197724 3.0
    vertex -62.6566390010375 23.657502342197724 23.0
  endloop
endfacet
facet normal 0.8814253197519989 -0.4723234121871226 0.0
  outer loop
    vertex -54.39865363385471 39.068123973404816 3.0
    vertex -62.6566390010375 23.657502342197724 23.0
    vertex -62.6566390010375 23.657502342197724 3.0
  endloop
endfacet
facet normal 0.8814253197519989 -0.4723234121871226 0.0
  outer loop
    vertex -62.6566390010375 23.657502342197724 23.0
    vertex -54.39865363385471 39.068123973404816 3.0
    vertex -54.39865363385471 39.068123973404816 23.0
  endloop
endfacet
facet normal 0.7291451857717215 -0.6843590417799139 0.0
  outer loop
    vertex -42.433489919550446 51.81631751895183 3.0
    vertex -54.39865363385471 39.068123973404816 23.0
    vertex -54.39865363385471 39.068123973404816 3.0
  endloop
endfacet
facet normal 0.7291451857717215 -0.6843590417799139 0.0
  outer loop
    vertex -54.39865363385471 39.068123973404816 23.0
    vertex -42.433489919550446 51.81631751895183 3.0
    vertex -42.433489919550446 51.81631751895183 23.0
  endloop
endfacet
facet normal 0.5271750123504914 -0.8497567336321963 0.0
  outer loop
    vertex -27.576553991886453 61.03331465609577 23.0
    vertex -42.433489919550446 51.81631751895183 3.0
    vertex -27.576553991886453 61.03331465609577 3.0
  endloop
endfacet
facet normal 0.5271750123504914 -0.8497567336321963 0.0
  outer loop
    vertex -42.433489919550446 51.81631751895183 3.0
    vertex -27.576553991886453 61.03331465609577 23.0
    vertex -42.433489919550446 51.81631751895183 23.0
  endloop
endfacet
facet normal 0.2892787330354768 -0.9572449083768425 0.0
  outer loop
    vertex -10.840321482085733 66.09099226174814 23.0
    vertex -27.576553991886453 61.03331465609577 3.0
    vertex -10.840321482085733 66.09099226174814 3.0
  endloop
endfacet
facet normal 0.2892787330354768 -0.9572449083768425 0.0
  outer loop
    vertex -27.576553991886453 61.03331465609577 3.0
    vertex -10.840321482085733 66.09099226174814 23.0
    vertex -27.576553991886453 61.03331465609577 23.0
  endloop
endfacet
endsolid Hydro9_Lid
